<?xml version="1.0" encoding="UTF-8" standalone="no"?><svg xmlns="http://www.w3.org/2000/svg" xmlns:xlink="http://www.w3.org/1999/xlink" contentScriptType="application/ecmascript" contentStyleType="text/css" height="834px" preserveAspectRatio="none" style="width:1675px;height:834px;background:#FFFFFF;" version="1.1" viewBox="0 0 1675 834" width="1675px" zoomAndPan="magnify"><defs><filter height="300%" id="f1oqkmaxb6ewox" width="300%" x="-1" y="-1"><feGaussianBlur result="blurOut" stdDeviation="2.0"/><feColorMatrix in="blurOut" result="blurOut2" type="matrix" values="0 0 0 0 0 0 0 0 0 0 0 0 0 0 0 0 0 0 .4 0"/><feOffset dx="4.0" dy="4.0" in="blurOut2" result="blurOut3"/><feBlend in="SourceGraphic" in2="blurOut3" mode="normal"/></filter></defs><g><text fill="#000000" font-family="sans-serif" font-size="18" lengthAdjust="spacing" textLength="148" x="757" y="18.6855">Keras - Composite</text><!--MD5=[a97cfd095b0077d714bcddc8cbc855aa]
class Layer--><rect codeLine="4" fill="#FEFECE" filter="url(#f1oqkmaxb6ewox)" height="103.3438" id="Layer" style="stroke:#A80036;stroke-width:1.5;" width="261" x="533" y="138.6406"/><ellipse cx="638.75" cy="154.6406" fill="#ADD1B2" rx="11" ry="11" style="stroke:#A80036;stroke-width:1.0;"/><path d="M641.5156,150.5156 Q641.6719,150.2969 641.8594,150.1875 Q642.0469,150.0781 642.2656,150.0781 Q642.6406,150.0781 642.875,150.3438 Q643.1094,150.5938 643.1094,151.2031 L643.1094,152.6563 Q643.1094,153.2656 642.875,153.5313 Q642.6406,153.7969 642.2656,153.7969 Q641.9219,153.7969 641.7188,153.5938 Q641.5156,153.4063 641.4063,152.8906 Q641.3594,152.5313 641.1719,152.3438 Q640.8438,151.9688 640.2344,151.75 Q639.625,151.5313 639,151.5313 Q638.2344,151.5313 637.5938,151.8594 Q636.9688,152.1875 636.4688,152.9375 Q635.9844,153.6875 635.9844,154.7188 L635.9844,155.8125 Q635.9844,157.0469 636.875,157.875 Q637.7656,158.6875 639.3594,158.6875 Q640.2969,158.6875 640.9531,158.4375 Q641.3438,158.2813 641.7656,157.8438 Q642.0313,157.5781 642.1719,157.5 Q642.3281,157.4219 642.5313,157.4219 Q642.8594,157.4219 643.1094,157.6875 Q643.375,157.9375 643.375,158.2813 Q643.375,158.625 643.0313,159.0313 Q642.5313,159.6094 641.7344,159.9375 Q640.6563,160.3906 639.3594,160.3906 Q637.8438,160.3906 636.6406,159.7656 Q635.6563,159.2656 634.9688,158.2031 Q634.2813,157.125 634.2813,155.8438 L634.2813,154.6875 Q634.2813,153.3594 634.8906,152.2188 Q635.5156,151.0625 636.6094,150.4531 Q637.7031,149.8281 638.9375,149.8281 Q639.6719,149.8281 640.3125,150 Q640.9688,150.1563 641.5156,150.5156 Z " fill="#000000"/><ellipse cx="664.25" cy="154.1406" fill="#84BE84" rx="3" ry="3" style="stroke:#038048;stroke-width:1.0;"/><text fill="#000000" font-family="sans-serif" font-size="12" lengthAdjust="spacing" textLength="30" x="670.25" y="159.5508">Layer</text><line style="stroke:#A80036;stroke-width:1.5;" x1="534" x2="793" y1="170.6406" y2="170.6406"/><polygon fill="none" points="544,176.6406,548,180.6406,544,184.6406,540,180.6406" style="stroke:#B38D22;stroke-width:1.0;"/><text fill="#000000" font-family="sans-serif" font-size="11" lengthAdjust="spacing" textLength="91" x="553" y="186.0596">_trainable: boolean</text><polygon fill="none" points="544,190.4766,548,194.4766,544,198.4766,540,194.4766" style="stroke:#B38D22;stroke-width:1.0;"/><text fill="#000000" font-family="sans-serif" font-size="11" lengthAdjust="spacing" textLength="86" x="553" y="199.8955">_stateful: boolean</text><line style="stroke:#A80036;stroke-width:1.5;" x1="534" x2="793" y1="206.3125" y2="206.3125"/><ellipse cx="544" cy="217.3125" fill="#84BE84" rx="3" ry="3" style="stroke:#038048;stroke-width:1.0;"/><text fill="#000000" font-family="sans-serif" font-size="11" lengthAdjust="spacing" textLength="180" x="553" y="221.7314">build(input_shape:TensorShape):void</text><ellipse cx="544" cy="231.1484" fill="#84BE84" rx="3" ry="3" style="stroke:#038048;stroke-width:1.0;"/><text fill="#000000" font-family="sans-serif" font-size="11" lengthAdjust="spacing" textLength="235" x="553" y="235.5674">call(inputs: list[Tensor], *args, **kwargs): Tensor</text><!--MD5=[7e20e022571e30ec1001cf6eabd7f3e2]
class Model--><rect codeLine="11" fill="#FEFECE" filter="url(#f1oqkmaxb6ewox)" height="103.3438" id="Model" style="stroke:#A80036;stroke-width:1.5;" width="350" x="266.5" y="316.6406"/><ellipse cx="415.25" cy="332.6406" fill="#ADD1B2" rx="11" ry="11" style="stroke:#A80036;stroke-width:1.0;"/><path d="M418.0156,328.5156 Q418.1719,328.2969 418.3594,328.1875 Q418.5469,328.0781 418.7656,328.0781 Q419.1406,328.0781 419.375,328.3438 Q419.6094,328.5938 419.6094,329.2031 L419.6094,330.6563 Q419.6094,331.2656 419.375,331.5313 Q419.1406,331.7969 418.7656,331.7969 Q418.4219,331.7969 418.2188,331.5938 Q418.0156,331.4063 417.9063,330.8906 Q417.8594,330.5313 417.6719,330.3438 Q417.3438,329.9688 416.7344,329.75 Q416.125,329.5313 415.5,329.5313 Q414.7344,329.5313 414.0938,329.8594 Q413.4688,330.1875 412.9688,330.9375 Q412.4844,331.6875 412.4844,332.7188 L412.4844,333.8125 Q412.4844,335.0469 413.375,335.875 Q414.2656,336.6875 415.8594,336.6875 Q416.7969,336.6875 417.4531,336.4375 Q417.8438,336.2813 418.2656,335.8438 Q418.5313,335.5781 418.6719,335.5 Q418.8281,335.4219 419.0313,335.4219 Q419.3594,335.4219 419.6094,335.6875 Q419.875,335.9375 419.875,336.2813 Q419.875,336.625 419.5313,337.0313 Q419.0313,337.6094 418.2344,337.9375 Q417.1563,338.3906 415.8594,338.3906 Q414.3438,338.3906 413.1406,337.7656 Q412.1563,337.2656 411.4688,336.2031 Q410.7813,335.125 410.7813,333.8438 L410.7813,332.6875 Q410.7813,331.3594 411.3906,330.2188 Q412.0156,329.0625 413.1094,328.4531 Q414.2031,327.8281 415.4375,327.8281 Q416.1719,327.8281 416.8125,328 Q417.4688,328.1563 418.0156,328.5156 Z " fill="#000000"/><ellipse cx="440.75" cy="332.1406" fill="#84BE84" rx="3" ry="3" style="stroke:#038048;stroke-width:1.0;"/><text fill="#000000" font-family="sans-serif" font-size="12" lengthAdjust="spacing" textLength="33" x="446.75" y="337.5508">Model</text><line style="stroke:#A80036;stroke-width:1.5;" x1="267.5" x2="615.5" y1="348.6406" y2="348.6406"/><ellipse cx="277.5" cy="359.6406" rx="3" ry="3" style="stroke:#038048;stroke-width:1.0;fill:none;"/><text fill="#000000" font-family="sans-serif" font-size="11" lengthAdjust="spacing" textLength="85" x="286.5" y="364.0596">inputs:list[Tensor]</text><ellipse cx="277.5" cy="373.4766" rx="3" ry="3" style="stroke:#038048;stroke-width:1.0;fill:none;"/><text fill="#000000" font-family="sans-serif" font-size="11" lengthAdjust="spacing" textLength="92" x="286.5" y="377.8955">outputs:list[Tensor]</text><line style="stroke:#A80036;stroke-width:1.5;" x1="267.5" x2="615.5" y1="384.3125" y2="384.3125"/><ellipse cx="277.5" cy="395.3125" fill="#84BE84" rx="3" ry="3" style="stroke:#038048;stroke-width:1.0;"/><text fill="#000000" font-family="sans-serif" font-size="11" lengthAdjust="spacing" textLength="186" x="286.5" y="399.7314">build(input_shape: TensorShape): void</text><ellipse cx="277.5" cy="409.1484" fill="#84BE84" rx="3" ry="3" style="stroke:#038048;stroke-width:1.0;"/><text fill="#000000" font-family="sans-serif" font-size="11" lengthAdjust="spacing" textLength="324" x="286.5" y="413.5674">call(inputs: list[Tensor], training: boolean, mask:list[Tensor]): Tensor</text><!--MD5=[529699ae87314006e87b27632489edee]
class Dense--><rect codeLine="18" fill="#FEFECE" filter="url(#f1oqkmaxb6ewox)" height="117.1797" id="Dense" style="stroke:#A80036;stroke-width:1.5;" width="174" x="651.5" y="309.6406"/><ellipse cx="710.25" cy="325.6406" fill="#ADD1B2" rx="11" ry="11" style="stroke:#A80036;stroke-width:1.0;"/><path d="M713.0156,321.5156 Q713.1719,321.2969 713.3594,321.1875 Q713.5469,321.0781 713.7656,321.0781 Q714.1406,321.0781 714.375,321.3438 Q714.6094,321.5938 714.6094,322.2031 L714.6094,323.6563 Q714.6094,324.2656 714.375,324.5313 Q714.1406,324.7969 713.7656,324.7969 Q713.4219,324.7969 713.2188,324.5938 Q713.0156,324.4063 712.9063,323.8906 Q712.8594,323.5313 712.6719,323.3438 Q712.3438,322.9688 711.7344,322.75 Q711.125,322.5313 710.5,322.5313 Q709.7344,322.5313 709.0938,322.8594 Q708.4688,323.1875 707.9688,323.9375 Q707.4844,324.6875 707.4844,325.7188 L707.4844,326.8125 Q707.4844,328.0469 708.375,328.875 Q709.2656,329.6875 710.8594,329.6875 Q711.7969,329.6875 712.4531,329.4375 Q712.8438,329.2813 713.2656,328.8438 Q713.5313,328.5781 713.6719,328.5 Q713.8281,328.4219 714.0313,328.4219 Q714.3594,328.4219 714.6094,328.6875 Q714.875,328.9375 714.875,329.2813 Q714.875,329.625 714.5313,330.0313 Q714.0313,330.6094 713.2344,330.9375 Q712.1563,331.3906 710.8594,331.3906 Q709.3438,331.3906 708.1406,330.7656 Q707.1563,330.2656 706.4688,329.2031 Q705.7813,328.125 705.7813,326.8438 L705.7813,325.6875 Q705.7813,324.3594 706.3906,323.2188 Q707.0156,322.0625 708.1094,321.4531 Q709.2031,320.8281 710.4375,320.8281 Q711.1719,320.8281 711.8125,321 Q712.4688,321.1563 713.0156,321.5156 Z " fill="#000000"/><ellipse cx="735.75" cy="325.1406" fill="#84BE84" rx="3" ry="3" style="stroke:#038048;stroke-width:1.0;"/><text fill="#000000" font-family="sans-serif" font-size="12" lengthAdjust="spacing" textLength="37" x="741.75" y="330.5508">Dense</text><line style="stroke:#A80036;stroke-width:1.5;" x1="652.5" x2="824.5" y1="341.6406" y2="341.6406"/><ellipse cx="662.5" cy="352.6406" rx="3" ry="3" style="stroke:#038048;stroke-width:1.0;fill:none;"/><text fill="#000000" font-family="sans-serif" font-size="11" lengthAdjust="spacing" textLength="40" x="671.5" y="357.0596">units: int</text><ellipse cx="662.5" cy="366.4766" rx="3" ry="3" style="stroke:#038048;stroke-width:1.0;fill:none;"/><text fill="#000000" font-family="sans-serif" font-size="11" lengthAdjust="spacing" textLength="88" x="671.5" y="370.8955">use_bias: boolean</text><ellipse cx="662.5" cy="380.3125" rx="3" ry="3" style="stroke:#038048;stroke-width:1.0;fill:none;"/><text fill="#000000" font-family="sans-serif" font-size="11" lengthAdjust="spacing" textLength="132" x="671.5" y="384.7314">supports_masking: boolean</text><line style="stroke:#A80036;stroke-width:1.5;" x1="652.5" x2="824.5" y1="391.1484" y2="391.1484"/><ellipse cx="662.5" cy="402.1484" fill="#84BE84" rx="3" ry="3" style="stroke:#038048;stroke-width:1.0;"/><text fill="#000000" font-family="sans-serif" font-size="11" lengthAdjust="spacing" textLength="148" x="671.5" y="406.5674">build(input_shape:list[int]): void</text><ellipse cx="662.5" cy="415.9844" fill="#84BE84" rx="3" ry="3" style="stroke:#038048;stroke-width:1.0;"/><text fill="#000000" font-family="sans-serif" font-size="11" lengthAdjust="spacing" textLength="109" x="671.5" y="420.4033">call(inputs:list[Tensor])</text><!--MD5=[65cbfafa14c08583173e9623322810bd]
class RNN--><rect codeLine="26" fill="#FEFECE" filter="url(#f1oqkmaxb6ewox)" height="89.5078" id="RNN" style="stroke:#A80036;stroke-width:1.5;" width="525" x="861" y="323.1406"/><ellipse cx="1100.25" cy="339.1406" fill="#ADD1B2" rx="11" ry="11" style="stroke:#A80036;stroke-width:1.0;"/><path d="M1103.0156,335.0156 Q1103.1719,334.7969 1103.3594,334.6875 Q1103.5469,334.5781 1103.7656,334.5781 Q1104.1406,334.5781 1104.375,334.8438 Q1104.6094,335.0938 1104.6094,335.7031 L1104.6094,337.1563 Q1104.6094,337.7656 1104.375,338.0313 Q1104.1406,338.2969 1103.7656,338.2969 Q1103.4219,338.2969 1103.2188,338.0938 Q1103.0156,337.9063 1102.9063,337.3906 Q1102.8594,337.0313 1102.6719,336.8438 Q1102.3438,336.4688 1101.7344,336.25 Q1101.125,336.0313 1100.5,336.0313 Q1099.7344,336.0313 1099.0938,336.3594 Q1098.4688,336.6875 1097.9688,337.4375 Q1097.4844,338.1875 1097.4844,339.2188 L1097.4844,340.3125 Q1097.4844,341.5469 1098.375,342.375 Q1099.2656,343.1875 1100.8594,343.1875 Q1101.7969,343.1875 1102.4531,342.9375 Q1102.8438,342.7813 1103.2656,342.3438 Q1103.5313,342.0781 1103.6719,342 Q1103.8281,341.9219 1104.0313,341.9219 Q1104.3594,341.9219 1104.6094,342.1875 Q1104.875,342.4375 1104.875,342.7813 Q1104.875,343.125 1104.5313,343.5313 Q1104.0313,344.1094 1103.2344,344.4375 Q1102.1563,344.8906 1100.8594,344.8906 Q1099.3438,344.8906 1098.1406,344.2656 Q1097.1563,343.7656 1096.4688,342.7031 Q1095.7813,341.625 1095.7813,340.3438 L1095.7813,339.1875 Q1095.7813,337.8594 1096.3906,336.7188 Q1097.0156,335.5625 1098.1094,334.9531 Q1099.2031,334.3281 1100.4375,334.3281 Q1101.1719,334.3281 1101.8125,334.5 Q1102.4688,334.6563 1103.0156,335.0156 Z " fill="#000000"/><ellipse cx="1125.75" cy="338.6406" fill="#84BE84" rx="3" ry="3" style="stroke:#038048;stroke-width:1.0;"/><text fill="#000000" font-family="sans-serif" font-size="12" lengthAdjust="spacing" textLength="27" x="1131.75" y="344.0508">RNN</text><line style="stroke:#A80036;stroke-width:1.5;" x1="862" x2="1385" y1="355.1406" y2="355.1406"/><ellipse cx="872" cy="366.1406" rx="3" ry="3" style="stroke:#038048;stroke-width:1.0;fill:none;"/><text fill="#000000" font-family="sans-serif" font-size="11" lengthAdjust="spacing" textLength="80" x="881" y="370.5596">stateful: boolean</text><line style="stroke:#A80036;stroke-width:1.5;" x1="862" x2="1385" y1="376.9766" y2="376.9766"/><ellipse cx="872" cy="387.9766" fill="#84BE84" rx="3" ry="3" style="stroke:#038048;stroke-width:1.0;"/><text fill="#000000" font-family="sans-serif" font-size="11" lengthAdjust="spacing" textLength="122" x="881" y="392.3955">build(input_shape:list[int])</text><ellipse cx="872" cy="401.8125" fill="#84BE84" rx="3" ry="3" style="stroke:#038048;stroke-width:1.0;"/><text fill="#000000" font-family="sans-serif" font-size="11" lengthAdjust="spacing" textLength="499" x="881" y="406.2314">call(inputs:list[Tensor], mask:list[Tensor], training:boolean, initial_state:Sequence, constants:list[Tensor])</text><!--MD5=[e3f72718913f1e037c5bc72e44de49f6]
class client--><rect codeLine="31" fill="#FEFECE" filter="url(#f1oqkmaxb6ewox)" height="48" id="client" style="stroke:#A80036;stroke-width:1.5;" width="72" x="627.5" y="29.6406"/><ellipse cx="642.5" cy="45.6406" fill="#ADD1B2" rx="11" ry="11" style="stroke:#A80036;stroke-width:1.0;"/><path d="M645.2656,41.5156 Q645.4219,41.2969 645.6094,41.1875 Q645.7969,41.0781 646.0156,41.0781 Q646.3906,41.0781 646.625,41.3438 Q646.8594,41.5938 646.8594,42.2031 L646.8594,43.6563 Q646.8594,44.2656 646.625,44.5313 Q646.3906,44.7969 646.0156,44.7969 Q645.6719,44.7969 645.4688,44.5938 Q645.2656,44.4063 645.1563,43.8906 Q645.1094,43.5313 644.9219,43.3438 Q644.5938,42.9688 643.9844,42.75 Q643.375,42.5313 642.75,42.5313 Q641.9844,42.5313 641.3438,42.8594 Q640.7188,43.1875 640.2188,43.9375 Q639.7344,44.6875 639.7344,45.7188 L639.7344,46.8125 Q639.7344,48.0469 640.625,48.875 Q641.5156,49.6875 643.1094,49.6875 Q644.0469,49.6875 644.7031,49.4375 Q645.0938,49.2813 645.5156,48.8438 Q645.7813,48.5781 645.9219,48.5 Q646.0781,48.4219 646.2813,48.4219 Q646.6094,48.4219 646.8594,48.6875 Q647.125,48.9375 647.125,49.2813 Q647.125,49.625 646.7813,50.0313 Q646.2813,50.6094 645.4844,50.9375 Q644.4063,51.3906 643.1094,51.3906 Q641.5938,51.3906 640.3906,50.7656 Q639.4063,50.2656 638.7188,49.2031 Q638.0313,48.125 638.0313,46.8438 L638.0313,45.6875 Q638.0313,44.3594 638.6406,43.2188 Q639.2656,42.0625 640.3594,41.4531 Q641.4531,40.8281 642.6875,40.8281 Q643.4219,40.8281 644.0625,41 Q644.7188,41.1563 645.2656,41.5156 Z " fill="#000000"/><ellipse cx="661.5" cy="45.1406" fill="#84BE84" rx="3" ry="3" style="stroke:#038048;stroke-width:1.0;"/><text fill="#000000" font-family="sans-serif" font-size="12" lengthAdjust="spacing" textLength="29" x="667.5" y="50.5508">client</text><line style="stroke:#A80036;stroke-width:1.5;" x1="628.5" x2="698.5" y1="61.6406" y2="61.6406"/><line style="stroke:#A80036;stroke-width:1.5;" x1="628.5" x2="698.5" y1="69.6406" y2="69.6406"/><!--MD5=[f181de05c7e54a943add324f1808f75d]
class Conv--><rect codeLine="34" fill="#FEFECE" filter="url(#f1oqkmaxb6ewox)" height="131.0156" id="Conv" style="stroke:#A80036;stroke-width:1.5;" width="148" x="1421.5" y="302.6406"/><ellipse cx="1471.25" cy="318.6406" fill="#A9DCDF" rx="11" ry="11" style="stroke:#A80036;stroke-width:1.0;"/><path d="M1473.4375,320.4063 L1469.2969,320.4063 L1468.875,321.4375 L1469.2969,321.4375 Q1469.9063,321.4375 1470.1719,321.6719 Q1470.4375,321.9063 1470.4375,322.2969 Q1470.4375,322.6719 1470.1719,322.9063 Q1469.9063,323.1406 1469.2969,323.1406 L1467,323.1406 Q1466.3906,323.1406 1466.1406,322.9063 Q1465.875,322.6719 1465.875,322.2813 Q1465.875,321.9063 1466.1563,321.6719 Q1466.4219,321.4219 1467.0469,321.4375 L1469.7188,314.7813 L1468.6094,314.7813 Q1468,314.7813 1467.7344,314.5469 Q1467.4688,314.3125 1467.4688,313.9219 Q1467.4688,313.5469 1467.7344,313.3125 Q1468,313.0781 1468.6094,313.0781 L1472.2813,313.0781 L1475.6719,321.4375 Q1476.2656,321.4375 1476.4531,321.5781 Q1476.8438,321.8438 1476.8438,322.2969 Q1476.8438,322.6719 1476.5781,322.9063 Q1476.3281,323.1406 1475.7188,323.1406 L1473.4219,323.1406 Q1472.8125,323.1406 1472.5469,322.9063 Q1472.2813,322.6719 1472.2813,322.2813 Q1472.2813,321.9063 1472.5469,321.6719 Q1472.8125,321.4375 1473.4219,321.4375 L1473.8438,321.4375 L1473.4375,320.4063 Z M1472.7188,318.7031 L1471.3594,315.3281 L1469.9844,318.7031 L1472.7188,318.7031 Z " fill="#000000"/><ellipse cx="1496.75" cy="318.1406" fill="#84BE84" rx="3" ry="3" style="stroke:#038048;stroke-width:1.0;"/><text fill="#000000" font-family="sans-serif" font-size="12" font-style="italic" lengthAdjust="spacing" textLength="29" x="1502.75" y="323.5508">Conv</text><line style="stroke:#A80036;stroke-width:1.5;" x1="1422.5" x2="1568.5" y1="334.6406" y2="334.6406"/><ellipse cx="1432.5" cy="345.6406" rx="3" ry="3" style="stroke:#038048;stroke-width:1.0;fill:none;"/><text fill="#000000" font-family="sans-serif" font-size="11" lengthAdjust="spacing" textLength="44" x="1441.5" y="350.0596">filters: int</text><ellipse cx="1432.5" cy="359.4766" rx="3" ry="3" style="stroke:#038048;stroke-width:1.0;fill:none;"/><text fill="#000000" font-family="sans-serif" font-size="11" lengthAdjust="spacing" textLength="101" x="1441.5" y="363.8955">kernel_size: tuple[int]</text><ellipse cx="1432.5" cy="373.3125" rx="3" ry="3" style="stroke:#038048;stroke-width:1.0;fill:none;"/><text fill="#000000" font-family="sans-serif" font-size="11" lengthAdjust="spacing" textLength="88" x="1441.5" y="377.7314">use_bias: boolean</text><ellipse cx="1432.5" cy="387.1484" rx="3" ry="3" style="stroke:#038048;stroke-width:1.0;fill:none;"/><text fill="#000000" font-family="sans-serif" font-size="11" lengthAdjust="spacing" textLength="92" x="1441.5" y="391.5674">data_format: String</text><line style="stroke:#A80036;stroke-width:1.5;" x1="1422.5" x2="1568.5" y1="397.9844" y2="397.9844"/><ellipse cx="1432.5" cy="408.9844" fill="#84BE84" rx="3" ry="3" style="stroke:#038048;stroke-width:1.0;"/><text fill="#000000" font-family="sans-serif" font-size="11" lengthAdjust="spacing" textLength="122" x="1441.5" y="413.4033">build(input_shape:list[int])</text><ellipse cx="1432.5" cy="422.8203" fill="#84BE84" rx="3" ry="3" style="stroke:#038048;stroke-width:1.0;"/><text fill="#000000" font-family="sans-serif" font-size="11" lengthAdjust="spacing" textLength="109" x="1441.5" y="427.2393">call(inputs:list[Tensor])</text><!--MD5=[1f499521424484a325d6046dda63162b]
class Conv1D--><rect codeLine="42" fill="#FEFECE" filter="url(#f1oqkmaxb6ewox)" height="48" id="Conv1D" style="stroke:#A80036;stroke-width:1.5;" width="87" x="1330" y="546.1406"/><ellipse cx="1345" cy="562.1406" fill="#ADD1B2" rx="11" ry="11" style="stroke:#A80036;stroke-width:1.0;"/><path d="M1347.7656,558.0156 Q1347.9219,557.7969 1348.1094,557.6875 Q1348.2969,557.5781 1348.5156,557.5781 Q1348.8906,557.5781 1349.125,557.8438 Q1349.3594,558.0938 1349.3594,558.7031 L1349.3594,560.1563 Q1349.3594,560.7656 1349.125,561.0313 Q1348.8906,561.2969 1348.5156,561.2969 Q1348.1719,561.2969 1347.9688,561.0938 Q1347.7656,560.9063 1347.6563,560.3906 Q1347.6094,560.0313 1347.4219,559.8438 Q1347.0938,559.4688 1346.4844,559.25 Q1345.875,559.0313 1345.25,559.0313 Q1344.4844,559.0313 1343.8438,559.3594 Q1343.2188,559.6875 1342.7188,560.4375 Q1342.2344,561.1875 1342.2344,562.2188 L1342.2344,563.3125 Q1342.2344,564.5469 1343.125,565.375 Q1344.0156,566.1875 1345.6094,566.1875 Q1346.5469,566.1875 1347.2031,565.9375 Q1347.5938,565.7813 1348.0156,565.3438 Q1348.2813,565.0781 1348.4219,565 Q1348.5781,564.9219 1348.7813,564.9219 Q1349.1094,564.9219 1349.3594,565.1875 Q1349.625,565.4375 1349.625,565.7813 Q1349.625,566.125 1349.2813,566.5313 Q1348.7813,567.1094 1347.9844,567.4375 Q1346.9063,567.8906 1345.6094,567.8906 Q1344.0938,567.8906 1342.8906,567.2656 Q1341.9063,566.7656 1341.2188,565.7031 Q1340.5313,564.625 1340.5313,563.3438 L1340.5313,562.1875 Q1340.5313,560.8594 1341.1406,559.7188 Q1341.7656,558.5625 1342.8594,557.9531 Q1343.9531,557.3281 1345.1875,557.3281 Q1345.9219,557.3281 1346.5625,557.5 Q1347.2188,557.6563 1347.7656,558.0156 Z " fill="#000000"/><ellipse cx="1364" cy="561.6406" fill="#84BE84" rx="3" ry="3" style="stroke:#038048;stroke-width:1.0;"/><text fill="#000000" font-family="sans-serif" font-size="12" lengthAdjust="spacing" textLength="44" x="1370" y="567.0508">Conv1D</text><line style="stroke:#A80036;stroke-width:1.5;" x1="1331" x2="1416" y1="578.1406" y2="578.1406"/><line style="stroke:#A80036;stroke-width:1.5;" x1="1331" x2="1416" y1="586.1406" y2="586.1406"/><!--MD5=[5cec783afe93cd202e8d8359dc94555e]
class Conv2D--><rect codeLine="45" fill="#FEFECE" filter="url(#f1oqkmaxb6ewox)" height="48" id="Conv2D" style="stroke:#A80036;stroke-width:1.5;" width="87" x="1452" y="546.1406"/><ellipse cx="1467" cy="562.1406" fill="#ADD1B2" rx="11" ry="11" style="stroke:#A80036;stroke-width:1.0;"/><path d="M1469.7656,558.0156 Q1469.9219,557.7969 1470.1094,557.6875 Q1470.2969,557.5781 1470.5156,557.5781 Q1470.8906,557.5781 1471.125,557.8438 Q1471.3594,558.0938 1471.3594,558.7031 L1471.3594,560.1563 Q1471.3594,560.7656 1471.125,561.0313 Q1470.8906,561.2969 1470.5156,561.2969 Q1470.1719,561.2969 1469.9688,561.0938 Q1469.7656,560.9063 1469.6563,560.3906 Q1469.6094,560.0313 1469.4219,559.8438 Q1469.0938,559.4688 1468.4844,559.25 Q1467.875,559.0313 1467.25,559.0313 Q1466.4844,559.0313 1465.8438,559.3594 Q1465.2188,559.6875 1464.7188,560.4375 Q1464.2344,561.1875 1464.2344,562.2188 L1464.2344,563.3125 Q1464.2344,564.5469 1465.125,565.375 Q1466.0156,566.1875 1467.6094,566.1875 Q1468.5469,566.1875 1469.2031,565.9375 Q1469.5938,565.7813 1470.0156,565.3438 Q1470.2813,565.0781 1470.4219,565 Q1470.5781,564.9219 1470.7813,564.9219 Q1471.1094,564.9219 1471.3594,565.1875 Q1471.625,565.4375 1471.625,565.7813 Q1471.625,566.125 1471.2813,566.5313 Q1470.7813,567.1094 1469.9844,567.4375 Q1468.9063,567.8906 1467.6094,567.8906 Q1466.0938,567.8906 1464.8906,567.2656 Q1463.9063,566.7656 1463.2188,565.7031 Q1462.5313,564.625 1462.5313,563.3438 L1462.5313,562.1875 Q1462.5313,560.8594 1463.1406,559.7188 Q1463.7656,558.5625 1464.8594,557.9531 Q1465.9531,557.3281 1467.1875,557.3281 Q1467.9219,557.3281 1468.5625,557.5 Q1469.2188,557.6563 1469.7656,558.0156 Z " fill="#000000"/><ellipse cx="1486" cy="561.6406" fill="#84BE84" rx="3" ry="3" style="stroke:#038048;stroke-width:1.0;"/><text fill="#000000" font-family="sans-serif" font-size="12" lengthAdjust="spacing" textLength="44" x="1492" y="567.0508">Conv2D</text><line style="stroke:#A80036;stroke-width:1.5;" x1="1453" x2="1538" y1="578.1406" y2="578.1406"/><line style="stroke:#A80036;stroke-width:1.5;" x1="1453" x2="1538" y1="586.1406" y2="586.1406"/><!--MD5=[82f1ce22ff658afce9808cb3c69e05a0]
class Conv3D--><rect codeLine="48" fill="#FEFECE" filter="url(#f1oqkmaxb6ewox)" height="48" id="Conv3D" style="stroke:#A80036;stroke-width:1.5;" width="87" x="1574" y="546.1406"/><ellipse cx="1589" cy="562.1406" fill="#ADD1B2" rx="11" ry="11" style="stroke:#A80036;stroke-width:1.0;"/><path d="M1591.7656,558.0156 Q1591.9219,557.7969 1592.1094,557.6875 Q1592.2969,557.5781 1592.5156,557.5781 Q1592.8906,557.5781 1593.125,557.8438 Q1593.3594,558.0938 1593.3594,558.7031 L1593.3594,560.1563 Q1593.3594,560.7656 1593.125,561.0313 Q1592.8906,561.2969 1592.5156,561.2969 Q1592.1719,561.2969 1591.9688,561.0938 Q1591.7656,560.9063 1591.6563,560.3906 Q1591.6094,560.0313 1591.4219,559.8438 Q1591.0938,559.4688 1590.4844,559.25 Q1589.875,559.0313 1589.25,559.0313 Q1588.4844,559.0313 1587.8438,559.3594 Q1587.2188,559.6875 1586.7188,560.4375 Q1586.2344,561.1875 1586.2344,562.2188 L1586.2344,563.3125 Q1586.2344,564.5469 1587.125,565.375 Q1588.0156,566.1875 1589.6094,566.1875 Q1590.5469,566.1875 1591.2031,565.9375 Q1591.5938,565.7813 1592.0156,565.3438 Q1592.2813,565.0781 1592.4219,565 Q1592.5781,564.9219 1592.7813,564.9219 Q1593.1094,564.9219 1593.3594,565.1875 Q1593.625,565.4375 1593.625,565.7813 Q1593.625,566.125 1593.2813,566.5313 Q1592.7813,567.1094 1591.9844,567.4375 Q1590.9063,567.8906 1589.6094,567.8906 Q1588.0938,567.8906 1586.8906,567.2656 Q1585.9063,566.7656 1585.2188,565.7031 Q1584.5313,564.625 1584.5313,563.3438 L1584.5313,562.1875 Q1584.5313,560.8594 1585.1406,559.7188 Q1585.7656,558.5625 1586.8594,557.9531 Q1587.9531,557.3281 1589.1875,557.3281 Q1589.9219,557.3281 1590.5625,557.5 Q1591.2188,557.6563 1591.7656,558.0156 Z " fill="#000000"/><ellipse cx="1608" cy="561.6406" fill="#84BE84" rx="3" ry="3" style="stroke:#038048;stroke-width:1.0;"/><text fill="#000000" font-family="sans-serif" font-size="12" lengthAdjust="spacing" textLength="44" x="1614" y="567.0508">Conv3D</text><line style="stroke:#A80036;stroke-width:1.5;" x1="1575" x2="1660" y1="578.1406" y2="578.1406"/><line style="stroke:#A80036;stroke-width:1.5;" x1="1575" x2="1660" y1="586.1406" y2="586.1406"/><!--MD5=[ac5644d5e312d3f23dbf4b2ec3976403]
class Functional--><rect codeLine="52" fill="#FEFECE" filter="url(#f1oqkmaxb6ewox)" height="117.1797" id="Functional" style="stroke:#A80036;stroke-width:1.5;" width="307" x="196" y="511.6406"/><ellipse cx="311.25" cy="527.6406" fill="#ADD1B2" rx="11" ry="11" style="stroke:#A80036;stroke-width:1.0;"/><path d="M314.0156,523.5156 Q314.1719,523.2969 314.3594,523.1875 Q314.5469,523.0781 314.7656,523.0781 Q315.1406,523.0781 315.375,523.3438 Q315.6094,523.5938 315.6094,524.2031 L315.6094,525.6563 Q315.6094,526.2656 315.375,526.5313 Q315.1406,526.7969 314.7656,526.7969 Q314.4219,526.7969 314.2188,526.5938 Q314.0156,526.4063 313.9063,525.8906 Q313.8594,525.5313 313.6719,525.3438 Q313.3438,524.9688 312.7344,524.75 Q312.125,524.5313 311.5,524.5313 Q310.7344,524.5313 310.0938,524.8594 Q309.4688,525.1875 308.9688,525.9375 Q308.4844,526.6875 308.4844,527.7188 L308.4844,528.8125 Q308.4844,530.0469 309.375,530.875 Q310.2656,531.6875 311.8594,531.6875 Q312.7969,531.6875 313.4531,531.4375 Q313.8438,531.2813 314.2656,530.8438 Q314.5313,530.5781 314.6719,530.5 Q314.8281,530.4219 315.0313,530.4219 Q315.3594,530.4219 315.6094,530.6875 Q315.875,530.9375 315.875,531.2813 Q315.875,531.625 315.5313,532.0313 Q315.0313,532.6094 314.2344,532.9375 Q313.1563,533.3906 311.8594,533.3906 Q310.3438,533.3906 309.1406,532.7656 Q308.1563,532.2656 307.4688,531.2031 Q306.7813,530.125 306.7813,528.8438 L306.7813,527.6875 Q306.7813,526.3594 307.3906,525.2188 Q308.0156,524.0625 309.1094,523.4531 Q310.2031,522.8281 311.4375,522.8281 Q312.1719,522.8281 312.8125,523 Q313.4688,523.1563 314.0156,523.5156 Z " fill="#000000"/><ellipse cx="336.75" cy="527.1406" fill="#84BE84" rx="3" ry="3" style="stroke:#038048;stroke-width:1.0;"/><text fill="#000000" font-family="sans-serif" font-size="12" lengthAdjust="spacing" textLength="57" x="342.75" y="532.5508">Functional</text><line style="stroke:#A80036;stroke-width:1.5;" x1="197" x2="502" y1="543.6406" y2="543.6406"/><polygon fill="none" points="207,549.6406,211,553.6406,207,557.6406,203,553.6406" style="stroke:#B38D22;stroke-width:1.0;"/><text fill="#000000" font-family="sans-serif" font-size="11" lengthAdjust="spacing" textLength="172" x="216" y="559.0596">_self_tracked_trackables:list[Layer]</text><ellipse cx="207" cy="568.4766" rx="3" ry="3" style="stroke:#038048;stroke-width:1.0;fill:none;"/><text fill="#000000" font-family="sans-serif" font-size="11" lengthAdjust="spacing" textLength="82" x="216" y="572.8955">skip_init: boolean</text><line style="stroke:#A80036;stroke-width:1.5;" x1="197" x2="502" y1="579.3125" y2="579.3125"/><ellipse cx="207" cy="590.3125" fill="#84BE84" rx="3" ry="3" style="stroke:#038048;stroke-width:1.0;"/><text fill="#000000" font-family="sans-serif" font-size="11" lengthAdjust="spacing" textLength="90" x="216" y="594.7314">input(): list[Tensor]</text><ellipse cx="207" cy="604.1484" fill="#84BE84" rx="3" ry="3" style="stroke:#038048;stroke-width:1.0;"/><text fill="#000000" font-family="sans-serif" font-size="11" lengthAdjust="spacing" textLength="97" x="216" y="608.5674">output(): list[Tensor]</text><ellipse cx="207" cy="617.9844" fill="#84BE84" rx="3" ry="3" style="stroke:#038048;stroke-width:1.0;"/><text fill="#000000" font-family="sans-serif" font-size="11" lengthAdjust="spacing" textLength="281" x="216" y="622.4033">call(inputs:list[Tensor], training: boolean, mask:list[Tensor])</text><!--MD5=[3d706e29217cf287de5b5ece8165515f]
class Sequential--><rect codeLine="60" fill="#FEFECE" filter="url(#f1oqkmaxb6ewox)" height="131.0156" id="Sequential" style="stroke:#A80036;stroke-width:1.5;" width="307" x="9" y="689.6406"/><ellipse cx="123.25" cy="705.6406" fill="#ADD1B2" rx="11" ry="11" style="stroke:#A80036;stroke-width:1.0;"/><path d="M126.0156,701.5156 Q126.1719,701.2969 126.3594,701.1875 Q126.5469,701.0781 126.7656,701.0781 Q127.1406,701.0781 127.375,701.3438 Q127.6094,701.5938 127.6094,702.2031 L127.6094,703.6563 Q127.6094,704.2656 127.375,704.5313 Q127.1406,704.7969 126.7656,704.7969 Q126.4219,704.7969 126.2188,704.5938 Q126.0156,704.4063 125.9063,703.8906 Q125.8594,703.5313 125.6719,703.3438 Q125.3438,702.9688 124.7344,702.75 Q124.125,702.5313 123.5,702.5313 Q122.7344,702.5313 122.0938,702.8594 Q121.4688,703.1875 120.9688,703.9375 Q120.4844,704.6875 120.4844,705.7188 L120.4844,706.8125 Q120.4844,708.0469 121.375,708.875 Q122.2656,709.6875 123.8594,709.6875 Q124.7969,709.6875 125.4531,709.4375 Q125.8438,709.2813 126.2656,708.8438 Q126.5313,708.5781 126.6719,708.5 Q126.8281,708.4219 127.0313,708.4219 Q127.3594,708.4219 127.6094,708.6875 Q127.875,708.9375 127.875,709.2813 Q127.875,709.625 127.5313,710.0313 Q127.0313,710.6094 126.2344,710.9375 Q125.1563,711.3906 123.8594,711.3906 Q122.3438,711.3906 121.1406,710.7656 Q120.1563,710.2656 119.4688,709.2031 Q118.7813,708.125 118.7813,706.8438 L118.7813,705.6875 Q118.7813,704.3594 119.3906,703.2188 Q120.0156,702.0625 121.1094,701.4531 Q122.2031,700.8281 123.4375,700.8281 Q124.1719,700.8281 124.8125,701 Q125.4688,701.1563 126.0156,701.5156 Z " fill="#000000"/><ellipse cx="148.75" cy="705.1406" fill="#84BE84" rx="3" ry="3" style="stroke:#038048;stroke-width:1.0;"/><text fill="#000000" font-family="sans-serif" font-size="12" lengthAdjust="spacing" textLength="59" x="154.75" y="710.5508">Sequential</text><line style="stroke:#A80036;stroke-width:1.5;" x1="10" x2="315" y1="721.6406" y2="721.6406"/><ellipse cx="20" cy="732.6406" rx="3" ry="3" style="stroke:#038048;stroke-width:1.0;fill:none;"/><text fill="#000000" font-family="sans-serif" font-size="11" lengthAdjust="spacing" textLength="132" x="29" y="737.0596">supports_masking: boolean</text><polygon fill="none" points="20,741.4766,24,745.4766,20,749.4766,16,745.4766" style="stroke:#B38D22;stroke-width:1.0;"/><text fill="#000000" font-family="sans-serif" font-size="11" lengthAdjust="spacing" textLength="100" x="29" y="750.8955">_created_nodes: set</text><line style="stroke:#A80036;stroke-width:1.5;" x1="10" x2="315" y1="757.3125" y2="757.3125"/><ellipse cx="20" cy="768.3125" fill="#84BE84" rx="3" ry="3" style="stroke:#038048;stroke-width:1.0;"/><text fill="#000000" font-family="sans-serif" font-size="11" lengthAdjust="spacing" textLength="110" x="29" y="772.7314">add(layer: Layer): void</text><ellipse cx="20" cy="782.1484" fill="#84BE84" rx="3" ry="3" style="stroke:#038048;stroke-width:1.0;"/><text fill="#000000" font-family="sans-serif" font-size="11" lengthAdjust="spacing" textLength="52" x="29" y="786.5674">pop(): void</text><ellipse cx="20" cy="795.9844" fill="#84BE84" rx="3" ry="3" style="stroke:#038048;stroke-width:1.0;"/><text fill="#000000" font-family="sans-serif" font-size="11" lengthAdjust="spacing" textLength="122" x="29" y="800.4033">build(input_shape:list[int])</text><ellipse cx="20" cy="809.8203" fill="#84BE84" rx="3" ry="3" style="stroke:#038048;stroke-width:1.0;"/><text fill="#000000" font-family="sans-serif" font-size="11" lengthAdjust="spacing" textLength="281" x="29" y="814.2393">call(inputs:list[Tensor], training: boolean, mask:list[Tensor])</text><!--MD5=[7a3b6b9c3df4a90e0d54f280bc36d6c0]
reverse link Layer to Model--><path d="M583.9,254.2506 C558.1,274.7006 529.84,297.1006 505.35,316.5206 " fill="none" id="Layer-backto-Model" style="stroke:#A80036;stroke-width:1.0;"/><polygon fill="none" points="579.57,248.7506,599.59,241.8106,588.26,259.7206,579.57,248.7506" style="stroke:#A80036;stroke-width:1.0;"/><!--MD5=[41af6aaef126adbad02f80ac12126185]
reverse link Layer to Dense--><path d="M693.08,260.5506 C699.99,276.7806 707.29,293.8906 713.96,309.5406 " fill="none" id="Layer-backto-Dense" style="stroke:#A80036;stroke-width:1.0;"/><polygon fill="none" points="686.59,263.1906,685.19,242.0506,699.47,257.7006,686.59,263.1906" style="stroke:#A80036;stroke-width:1.0;"/><!--MD5=[d7392039f37343151db53c4ccbc87dec]
reverse link Layer to RNN--><path d="M813,248.3406 C876.4,272.6006 949.13,300.4206 1008.26,323.0506 " fill="none" id="Layer-backto-RNN" style="stroke:#A80036;stroke-width:1.0;"/><polygon fill="none" points="810.27,254.7906,794.09,241.1006,815.27,241.7106,810.27,254.7906" style="stroke:#A80036;stroke-width:1.0;"/><!--MD5=[3c4e9e8e8281329d105afb72477d3583]
reverse link Layer to Conv--><path d="M814.32,193.7606 C967.69,200.9806 1209.69,225.1206 1403.5,302.6406 C1409.48,305.0306 1415.44,307.8806 1421.3,311.0206 " fill="none" id="Layer-backto-Conv" style="stroke:#A80036;stroke-width:1.0;"/><polygon fill="none" points="813.88,200.7506,794.21,192.8906,814.49,186.7606,813.88,200.7506" style="stroke:#A80036;stroke-width:1.0;"/><!--MD5=[34fa0212c2b71041bfefca872f39cf6f]
reverse link Conv to Conv1D--><path d="M1445.38,451.3106 C1424.54,485.4706 1401.95,522.5006 1387.77,545.7506 " fill="none" id="Conv-backto-Conv1D" style="stroke:#A80036;stroke-width:1.0;"/><polygon fill="none" points="1439.67,447.2306,1456.06,433.8006,1451.62,454.5206,1439.67,447.2306" style="stroke:#A80036;stroke-width:1.0;"/><!--MD5=[ea024bdae5e3ee3b9b952a999f73bdb3]
reverse link Conv to Conv2D--><path d="M1495.5,454.1406 C1495.5,487.5006 1495.5,523.1406 1495.5,545.7506 " fill="none" id="Conv-backto-Conv2D" style="stroke:#A80036;stroke-width:1.0;"/><polygon fill="none" points="1488.5,453.8006,1495.5,433.8006,1502.5,453.8006,1488.5,453.8006" style="stroke:#A80036;stroke-width:1.0;"/><!--MD5=[ec5b64ba7152df9fc7d67ac4faf544e8]
reverse link Conv to Conv3D--><path d="M1545.62,451.3106 C1566.46,485.4706 1589.05,522.5006 1603.23,545.7506 " fill="none" id="Conv-backto-Conv3D" style="stroke:#A80036;stroke-width:1.0;"/><polygon fill="none" points="1539.38,454.5206,1534.94,433.8006,1551.33,447.2306,1539.38,454.5206" style="stroke:#A80036;stroke-width:1.0;"/><!--MD5=[c2695e04cf1f7cdcc498a368f84a0cad]
reverse link Model to Functional--><path d="M409.68,438.3106 C398.72,462.1406 386.56,488.5706 376.06,511.3906 " fill="none" id="Model-backto-Functional" style="stroke:#A80036;stroke-width:1.0;"/><polygon fill="none" points="403.45,435.1106,418.17,419.8706,416.17,440.9606,403.45,435.1106" style="stroke:#A80036;stroke-width:1.0;"/><!--MD5=[ad10e13e9a74e228173f46e8a0851411]
reverse link Functional to Sequential--><path d="M275.92,643.1506 C260.3,658.4306 243.91,674.4706 228.6,689.4606 " fill="none" id="Functional-backto-Sequential" style="stroke:#A80036;stroke-width:1.0;"/><polygon fill="none" points="271.4,637.7806,290.59,628.7906,281.19,647.7806,271.4,637.7806" style="stroke:#A80036;stroke-width:1.0;"/><!--MD5=[fceea1a92e39da3f605b1d0ad196c18c]
reverse link Layer to Sequential--><path codeLine="70" d="M527.81,206.8806 C412.05,223.4606 258.6,254.0106 221.5,302.6406 C134.83,416.2406 141.13,594.5006 152.33,689.4906 " fill="none" id="Layer-backto-Sequential" style="stroke:#A80036;stroke-width:1.0;stroke-dasharray:7.0,7.0;"/><polygon fill="#A80036" points="532.95,206.1506,523.4704,203.479,528.0014,206.8657,524.6146,211.3967,532.95,206.1506" style="stroke:#A80036;stroke-width:1.0;"/><text fill="#000000" font-family="sans-serif" font-size="13" lengthAdjust="spacing" textLength="21" x="157.5" y="478.1357">use</text><!--MD5=[3cdf6bf4bf0b6d7ab95898617c2f3a47]
reverse link Layer to Functional--><path codeLine="71" d="M527.79,209.6006 C420.29,227.3406 282.69,258.0606 248.5,302.6406 C200.25,365.5606 251.99,454.1306 297.43,511.5906 " fill="none" id="Layer-backto-Functional" style="stroke:#A80036;stroke-width:1.0;"/><polygon fill="#A80036" points="532.88,208.7706,523.3565,206.2599,527.9442,209.5695,524.6347,214.1572,532.88,208.7706" style="stroke:#A80036;stroke-width:1.0;"/><!--MD5=[e03215faf187d862fea85ea206c3298c]
link client to Layer--><path codeLine="72" d="M663.5,77.7606 C663.5,93.0006 663.5,113.6606 663.5,133.0406 " fill="none" id="client-to-Layer" style="stroke:#A80036;stroke-width:1.0;"/><polygon fill="#A80036" points="663.5,138.4706,667.5,129.4706,663.5,133.4706,659.5,129.4706,663.5,138.4706" style="stroke:#A80036;stroke-width:1.0;"/><!--MD5=[47b6c8c3c12bb206fd501407af4d51f2]
@startuml

title Keras - Composite

+class Layer {
    +build(input_shape:TensorShape):void
    +call(inputs: list[Tensor], *args, **kwargs): Tensor
    #_trainable: boolean
    #_stateful: boolean
} 

+class Model extends Layer{
    +build(input_shape: TensorShape): void
    +call(inputs: list[Tensor], training: boolean, mask:list[Tensor]): Tensor
    +inputs:list[Tensor]
    +outputs:list[Tensor]
}

+class Dense extends Layer {
    +build(input_shape:list[int]): void
    +call(inputs:list[Tensor])
    +units: int
    +use_bias: boolean
    +supports_masking: boolean
}

+class RNN extends Layer {
    +build(input_shape:list[int])
    +call(inputs:list[Tensor], mask:list[Tensor], training:boolean, initial_state:Sequence, constants:list[Tensor])
    +stateful: boolean
}
+class client{

}
+abstract class Conv extends Layer {
    +build(input_shape:list[int])
    +call(inputs:list[Tensor])
    +filters: int
    +kernel_size: tuple[int]
    +use_bias: boolean
    +data_format: String
}
+class Conv1D extends Conv{
    
}
+class Conv2D extends Conv{

}
+class Conv3D extends Conv{
    
}

+class Functional extends Model {
    #_self_tracked_trackables:list[Layer]
    +input(): list[Tensor]
    +output(): list[Tensor]
    +call(inputs:list[Tensor], training: boolean, mask:list[Tensor])
    +skip_init: boolean
}

+class Sequential extends Functional {
    +add(layer: Layer): void
    +pop(): void
    +build(input_shape:list[int])
    +call(inputs:list[Tensor], training: boolean, mask:list[Tensor])
    +supports_masking: boolean
    #_created_nodes: set

}

Sequential .left.> Layer : use
Functional -left-> Layer
client - -> Layer



@enduml

PlantUML version 1.2021.14(Fri Nov 12 23:46:50 ICT 2021)
(GPL source distribution)
Java Runtime: Java(TM) SE Runtime Environment
JVM: Java HotSpot(TM) 64-Bit Server VM
Default Encoding: Cp1252
Language: en
Country: US
--></g></svg>