<?xml version="1.0" encoding="UTF-8" standalone="no"?><svg xmlns="http://www.w3.org/2000/svg" xmlns:xlink="http://www.w3.org/1999/xlink" contentScriptType="application/ecmascript" contentStyleType="text/css" height="828px" preserveAspectRatio="none" style="width:1049px;height:828px;background:#FFFFFF;" version="1.1" viewBox="0 0 1049 828" width="1049px" zoomAndPan="magnify"><defs><filter height="300%" id="f1nfi994szn87m" width="300%" x="-1" y="-1"><feGaussianBlur result="blurOut" stdDeviation="2.0"/><feColorMatrix in="blurOut" result="blurOut2" type="matrix" values="0 0 0 0 0 0 0 0 0 0 0 0 0 0 0 0 0 0 .4 0"/><feOffset dx="4.0" dy="4.0" in="blurOut2" result="blurOut3"/><feBlend in="SourceGraphic" in2="blurOut3" mode="normal"/></filter></defs><g><text fill="#000000" font-family="sans-serif" font-size="18" lengthAdjust="spacing" textLength="125" x="455.75" y="18.6855">Keras - Adapter</text><!--MD5=[8768b5d1da5b68c8ff6e40fbde36628f]
cluster tf.data--><polygon fill="#FFFFFF" filter="url(#f1nfi994szn87m)" points="485,709.6406,535,709.6406,542,733.25,603,733.25,603,809.6406,485,809.6406,485,709.6406" style="stroke:#000000;stroke-width:1.5;"/><line style="stroke:#000000;stroke-width:1.5;" x1="485" x2="542" y1="733.25" y2="733.25"/><text fill="#000000" font-family="sans-serif" font-size="14" font-weight="bold" lengthAdjust="spacing" textLength="44" x="489" y="726.1738">tf.data</text><!--MD5=[ca3a413f40890da655c6a61d4190031b]
cluster keras.utils--><polygon fill="#FFFFFF" filter="url(#f1nfi994szn87m)" points="464,525.1406,543,525.1406,550,548.75,624,548.75,624,639.1406,464,639.1406,464,525.1406" style="stroke:#000000;stroke-width:1.5;"/><line style="stroke:#000000;stroke-width:1.5;" x1="464" x2="550" y1="548.75" y2="548.75"/><text fill="#000000" font-family="sans-serif" font-size="14" font-weight="bold" lengthAdjust="spacing" textLength="73" x="468" y="541.6738">keras.utils</text><!--MD5=[7f22fdd252f598d114647113dff0af9d]
class tf.data.Dataset--><rect codeLine="4" fill="#FEFECE" filter="url(#f1nfi994szn87m)" height="48" id="tf.data.Dataset" style="stroke:#A80036;stroke-width:1.5;" width="86" x="501" y="745.6406"/><ellipse cx="516" cy="761.6406" fill="#ADD1B2" rx="11" ry="11" style="stroke:#A80036;stroke-width:1.0;"/><path d="M518.7656,757.5156 Q518.9219,757.2969 519.1094,757.1875 Q519.2969,757.0781 519.5156,757.0781 Q519.8906,757.0781 520.125,757.3438 Q520.3594,757.5938 520.3594,758.2031 L520.3594,759.6563 Q520.3594,760.2656 520.125,760.5313 Q519.8906,760.7969 519.5156,760.7969 Q519.1719,760.7969 518.9688,760.5938 Q518.7656,760.4063 518.6563,759.8906 Q518.6094,759.5313 518.4219,759.3438 Q518.0938,758.9688 517.4844,758.75 Q516.875,758.5313 516.25,758.5313 Q515.4844,758.5313 514.8438,758.8594 Q514.2188,759.1875 513.7188,759.9375 Q513.2344,760.6875 513.2344,761.7188 L513.2344,762.8125 Q513.2344,764.0469 514.125,764.875 Q515.0156,765.6875 516.6094,765.6875 Q517.5469,765.6875 518.2031,765.4375 Q518.5938,765.2813 519.0156,764.8438 Q519.2813,764.5781 519.4219,764.5 Q519.5781,764.4219 519.7813,764.4219 Q520.1094,764.4219 520.3594,764.6875 Q520.625,764.9375 520.625,765.2813 Q520.625,765.625 520.2813,766.0313 Q519.7813,766.6094 518.9844,766.9375 Q517.9063,767.3906 516.6094,767.3906 Q515.0938,767.3906 513.8906,766.7656 Q512.9063,766.2656 512.2188,765.2031 Q511.5313,764.125 511.5313,762.8438 L511.5313,761.6875 Q511.5313,760.3594 512.1406,759.2188 Q512.7656,758.0625 513.8594,757.4531 Q514.9531,756.8281 516.1875,756.8281 Q516.9219,756.8281 517.5625,757 Q518.2188,757.1563 518.7656,757.5156 Z " fill="#000000"/><ellipse cx="535" cy="761.1406" fill="#84BE84" rx="3" ry="3" style="stroke:#038048;stroke-width:1.0;"/><text fill="#000000" font-family="sans-serif" font-size="12" lengthAdjust="spacing" textLength="43" x="541" y="766.5508">Dataset</text><line style="stroke:#A80036;stroke-width:1.5;" x1="502" x2="586" y1="777.6406" y2="777.6406"/><line style="stroke:#A80036;stroke-width:1.5;" x1="502" x2="586" y1="785.6406" y2="785.6406"/><!--MD5=[bd70ac99ed54acab93f82883cc2a515f]
class keras.utils.DatasetCreator--><rect codeLine="6" fill="#FEFECE" filter="url(#f1nfi994szn87m)" height="61.8359" id="keras.utils.DatasetCreator" style="stroke:#A80036;stroke-width:1.5;" width="127" x="480.5" y="561.1406"/><ellipse cx="495.5" cy="577.1406" fill="#ADD1B2" rx="11" ry="11" style="stroke:#A80036;stroke-width:1.0;"/><path d="M498.2656,573.0156 Q498.4219,572.7969 498.6094,572.6875 Q498.7969,572.5781 499.0156,572.5781 Q499.3906,572.5781 499.625,572.8438 Q499.8594,573.0938 499.8594,573.7031 L499.8594,575.1563 Q499.8594,575.7656 499.625,576.0313 Q499.3906,576.2969 499.0156,576.2969 Q498.6719,576.2969 498.4688,576.0938 Q498.2656,575.9063 498.1563,575.3906 Q498.1094,575.0313 497.9219,574.8438 Q497.5938,574.4688 496.9844,574.25 Q496.375,574.0313 495.75,574.0313 Q494.9844,574.0313 494.3438,574.3594 Q493.7188,574.6875 493.2188,575.4375 Q492.7344,576.1875 492.7344,577.2188 L492.7344,578.3125 Q492.7344,579.5469 493.625,580.375 Q494.5156,581.1875 496.1094,581.1875 Q497.0469,581.1875 497.7031,580.9375 Q498.0938,580.7813 498.5156,580.3438 Q498.7813,580.0781 498.9219,580 Q499.0781,579.9219 499.2813,579.9219 Q499.6094,579.9219 499.8594,580.1875 Q500.125,580.4375 500.125,580.7813 Q500.125,581.125 499.7813,581.5313 Q499.2813,582.1094 498.4844,582.4375 Q497.4063,582.8906 496.1094,582.8906 Q494.5938,582.8906 493.3906,582.2656 Q492.4063,581.7656 491.7188,580.7031 Q491.0313,579.625 491.0313,578.3438 L491.0313,577.1875 Q491.0313,575.8594 491.6406,574.7188 Q492.2656,573.5625 493.3594,572.9531 Q494.4531,572.3281 495.6875,572.3281 Q496.4219,572.3281 497.0625,572.5 Q497.7188,572.6563 498.2656,573.0156 Z " fill="#000000"/><ellipse cx="514.5" cy="576.6406" fill="#84BE84" rx="3" ry="3" style="stroke:#038048;stroke-width:1.0;"/><text fill="#000000" font-family="sans-serif" font-size="12" lengthAdjust="spacing" textLength="84" x="520.5" y="582.0508">DatasetCreator</text><line style="stroke:#A80036;stroke-width:1.5;" x1="481.5" x2="606.5" y1="593.1406" y2="593.1406"/><ellipse cx="491.5" cy="604.1406" rx="3" ry="3" style="stroke:#038048;stroke-width:1.0;fill:none;"/><text fill="#000000" font-family="sans-serif" font-size="11" lengthAdjust="spacing" textLength="92" x="500.5" y="608.5596">dataset_fn:Dataset</text><line style="stroke:#A80036;stroke-width:1.5;" x1="481.5" x2="606.5" y1="614.9766" y2="614.9766"/><!--MD5=[e3f72718913f1e037c5bc72e44de49f6]
class client--><rect codeLine="10" fill="#FEFECE" filter="url(#f1nfi994szn87m)" height="48" id="client" style="stroke:#A80036;stroke-width:1.5;" width="72" x="458" y="29.6406"/><ellipse cx="473" cy="45.6406" fill="#ADD1B2" rx="11" ry="11" style="stroke:#A80036;stroke-width:1.0;"/><path d="M475.7656,41.5156 Q475.9219,41.2969 476.1094,41.1875 Q476.2969,41.0781 476.5156,41.0781 Q476.8906,41.0781 477.125,41.3438 Q477.3594,41.5938 477.3594,42.2031 L477.3594,43.6563 Q477.3594,44.2656 477.125,44.5313 Q476.8906,44.7969 476.5156,44.7969 Q476.1719,44.7969 475.9688,44.5938 Q475.7656,44.4063 475.6563,43.8906 Q475.6094,43.5313 475.4219,43.3438 Q475.0938,42.9688 474.4844,42.75 Q473.875,42.5313 473.25,42.5313 Q472.4844,42.5313 471.8438,42.8594 Q471.2188,43.1875 470.7188,43.9375 Q470.2344,44.6875 470.2344,45.7188 L470.2344,46.8125 Q470.2344,48.0469 471.125,48.875 Q472.0156,49.6875 473.6094,49.6875 Q474.5469,49.6875 475.2031,49.4375 Q475.5938,49.2813 476.0156,48.8438 Q476.2813,48.5781 476.4219,48.5 Q476.5781,48.4219 476.7813,48.4219 Q477.1094,48.4219 477.3594,48.6875 Q477.625,48.9375 477.625,49.2813 Q477.625,49.625 477.2813,50.0313 Q476.7813,50.6094 475.9844,50.9375 Q474.9063,51.3906 473.6094,51.3906 Q472.0938,51.3906 470.8906,50.7656 Q469.9063,50.2656 469.2188,49.2031 Q468.5313,48.125 468.5313,46.8438 L468.5313,45.6875 Q468.5313,44.3594 469.1406,43.2188 Q469.7656,42.0625 470.8594,41.4531 Q471.9531,40.8281 473.1875,40.8281 Q473.9219,40.8281 474.5625,41 Q475.2188,41.1563 475.7656,41.5156 Z " fill="#000000"/><ellipse cx="492" cy="45.1406" fill="#84BE84" rx="3" ry="3" style="stroke:#038048;stroke-width:1.0;"/><text fill="#000000" font-family="sans-serif" font-size="12" lengthAdjust="spacing" textLength="29" x="498" y="50.5508">client</text><line style="stroke:#A80036;stroke-width:1.5;" x1="459" x2="529" y1="61.6406" y2="61.6406"/><line style="stroke:#A80036;stroke-width:1.5;" x1="459" x2="529" y1="69.6406" y2="69.6406"/><!--MD5=[167cd9dc6a7071edad8d18737b581f57]
class DataAdapter--><rect codeLine="14" fill="#FEFECE" filter="url(#f1nfi994szn87m)" height="117.1797" id="DataAdapter" style="stroke:#A80036;stroke-width:1.5;" width="180" x="404" y="137.6406"/><ellipse cx="449.75" cy="153.6406" fill="#A9DCDF" rx="11" ry="11" style="stroke:#A80036;stroke-width:1.0;"/><path d="M451.9375,155.4063 L447.7969,155.4063 L447.375,156.4375 L447.7969,156.4375 Q448.4063,156.4375 448.6719,156.6719 Q448.9375,156.9063 448.9375,157.2969 Q448.9375,157.6719 448.6719,157.9063 Q448.4063,158.1406 447.7969,158.1406 L445.5,158.1406 Q444.8906,158.1406 444.6406,157.9063 Q444.375,157.6719 444.375,157.2813 Q444.375,156.9063 444.6563,156.6719 Q444.9219,156.4219 445.5469,156.4375 L448.2188,149.7813 L447.1094,149.7813 Q446.5,149.7813 446.2344,149.5469 Q445.9688,149.3125 445.9688,148.9219 Q445.9688,148.5469 446.2344,148.3125 Q446.5,148.0781 447.1094,148.0781 L450.7813,148.0781 L454.1719,156.4375 Q454.7656,156.4375 454.9531,156.5781 Q455.3438,156.8438 455.3438,157.2969 Q455.3438,157.6719 455.0781,157.9063 Q454.8281,158.1406 454.2188,158.1406 L451.9219,158.1406 Q451.3125,158.1406 451.0469,157.9063 Q450.7813,157.6719 450.7813,157.2813 Q450.7813,156.9063 451.0469,156.6719 Q451.3125,156.4375 451.9219,156.4375 L452.3438,156.4375 L451.9375,155.4063 Z M451.2188,153.7031 L449.8594,150.3281 L448.4844,153.7031 L451.2188,153.7031 Z " fill="#000000"/><ellipse cx="475.25" cy="153.1406" fill="#84BE84" rx="3" ry="3" style="stroke:#038048;stroke-width:1.0;"/><text fill="#000000" font-family="sans-serif" font-size="12" font-style="italic" lengthAdjust="spacing" textLength="69" x="481.25" y="158.5508">DataAdapter</text><line style="stroke:#A80036;stroke-width:1.5;" x1="405" x2="583" y1="169.6406" y2="169.6406"/><line style="stroke:#A80036;stroke-width:1.5;" x1="405" x2="583" y1="177.6406" y2="177.6406"/><ellipse cx="415" cy="188.6406" fill="#84BE84" rx="3" ry="3" style="stroke:#038048;stroke-width:1.0;"/><text fill="#000000" font-family="sans-serif" font-size="11" lengthAdjust="spacing" text-decoration="underline" textLength="90" x="424" y="193.0596">can_handle(): bool</text><ellipse cx="415" cy="202.4766" fill="#84BE84" rx="3" ry="3" style="stroke:#038048;stroke-width:1.0;"/><text fill="#000000" font-family="sans-serif" font-size="11" font-style="italic" lengthAdjust="spacing" textLength="109" x="424" y="206.8955">get_dataset(): Dataset</text><ellipse cx="415" cy="216.3125" fill="#84BE84" rx="3" ry="3" style="stroke:#038048;stroke-width:1.0;"/><text fill="#000000" font-family="sans-serif" font-size="11" font-style="italic" lengthAdjust="spacing" textLength="68" x="424" y="220.7314">get_size(): int</text><ellipse cx="415" cy="230.1484" fill="#84BE84" rx="3" ry="3" style="stroke:#038048;stroke-width:1.0;"/><text fill="#000000" font-family="sans-serif" font-size="11" font-style="italic" lengthAdjust="spacing" textLength="81" x="424" y="234.5674">batch_size(): int</text><ellipse cx="415" cy="243.9844" fill="#84BE84" rx="3" ry="3" style="stroke:#038048;stroke-width:1.0;"/><text fill="#000000" font-family="sans-serif" font-size="11" lengthAdjust="spacing" textLength="154" x="424" y="248.4033">representative_batch_size(): int</text><!--MD5=[4ab1622ae93568b0545a0ce565b79056]
class TensorLikeDataAdapter--><rect codeLine="22" fill="#FEFECE" filter="url(#f1nfi994szn87m)" height="131.0156" id="TensorLikeDataAdapter" style="stroke:#A80036;stroke-width:1.5;" width="180" x="19" y="526.6406"/><ellipse cx="37.15" cy="542.6406" fill="#ADD1B2" rx="11" ry="11" style="stroke:#A80036;stroke-width:1.0;"/><path d="M39.9156,538.5156 Q40.0719,538.2969 40.2594,538.1875 Q40.4469,538.0781 40.6656,538.0781 Q41.0406,538.0781 41.275,538.3438 Q41.5094,538.5938 41.5094,539.2031 L41.5094,540.6563 Q41.5094,541.2656 41.275,541.5313 Q41.0406,541.7969 40.6656,541.7969 Q40.3219,541.7969 40.1188,541.5938 Q39.9156,541.4063 39.8063,540.8906 Q39.7594,540.5313 39.5719,540.3438 Q39.2438,539.9688 38.6344,539.75 Q38.025,539.5313 37.4,539.5313 Q36.6344,539.5313 35.9938,539.8594 Q35.3688,540.1875 34.8688,540.9375 Q34.3844,541.6875 34.3844,542.7188 L34.3844,543.8125 Q34.3844,545.0469 35.275,545.875 Q36.1656,546.6875 37.7594,546.6875 Q38.6969,546.6875 39.3531,546.4375 Q39.7438,546.2813 40.1656,545.8438 Q40.4313,545.5781 40.5719,545.5 Q40.7281,545.4219 40.9313,545.4219 Q41.2594,545.4219 41.5094,545.6875 Q41.775,545.9375 41.775,546.2813 Q41.775,546.625 41.4313,547.0313 Q40.9313,547.6094 40.1344,547.9375 Q39.0563,548.3906 37.7594,548.3906 Q36.2438,548.3906 35.0406,547.7656 Q34.0563,547.2656 33.3688,546.2031 Q32.6813,545.125 32.6813,543.8438 L32.6813,542.6875 Q32.6813,541.3594 33.2906,540.2188 Q33.9156,539.0625 35.0094,538.4531 Q36.1031,537.8281 37.3375,537.8281 Q38.0719,537.8281 38.7125,538 Q39.3688,538.1563 39.9156,538.5156 Z " fill="#000000"/><ellipse cx="56.85" cy="542.1406" fill="#84BE84" rx="3" ry="3" style="stroke:#038048;stroke-width:1.0;"/><text fill="#000000" font-family="sans-serif" font-size="12" lengthAdjust="spacing" textLength="130" x="62.85" y="547.5508">TensorLikeDataAdapter</text><line style="stroke:#A80036;stroke-width:1.5;" x1="20" x2="198" y1="558.6406" y2="558.6406"/><polygon fill="none" points="30,564.6406,34,568.6406,30,572.6406,26,568.6406" style="stroke:#B38D22;stroke-width:1.0;"/><text fill="#000000" font-family="sans-serif" font-size="11" lengthAdjust="spacing" textLength="82" x="39" y="574.0596">_dataset:Dataset</text><line style="stroke:#A80036;stroke-width:1.5;" x1="20" x2="198" y1="580.4766" y2="580.4766"/><ellipse cx="30" cy="591.4766" fill="#84BE84" rx="3" ry="3" style="stroke:#038048;stroke-width:1.0;"/><text fill="#000000" font-family="sans-serif" font-size="11" lengthAdjust="spacing" text-decoration="underline" textLength="90" x="39" y="595.8955">can_handle(): bool</text><ellipse cx="30" cy="605.3125" fill="#84BE84" rx="3" ry="3" style="stroke:#038048;stroke-width:1.0;"/><text fill="#000000" font-family="sans-serif" font-size="11" lengthAdjust="spacing" textLength="108" x="39" y="609.7314">get_dataset(): Dataset</text><ellipse cx="30" cy="619.1484" fill="#84BE84" rx="3" ry="3" style="stroke:#038048;stroke-width:1.0;"/><text fill="#000000" font-family="sans-serif" font-size="11" lengthAdjust="spacing" textLength="66" x="39" y="623.5674">get_size(): int</text><ellipse cx="30" cy="632.9844" fill="#84BE84" rx="3" ry="3" style="stroke:#038048;stroke-width:1.0;"/><text fill="#000000" font-family="sans-serif" font-size="11" lengthAdjust="spacing" textLength="78" x="39" y="637.4033">batch_size(): int</text><ellipse cx="30" cy="646.8203" fill="#84BE84" rx="3" ry="3" style="stroke:#038048;stroke-width:1.0;"/><text fill="#000000" font-family="sans-serif" font-size="11" lengthAdjust="spacing" textLength="154" x="39" y="651.2393">representative_batch_size(): int</text><!--MD5=[c9e68574001000ced8296063ea696239]
class CompositeTensorDataAdapter--><rect codeLine="33" fill="#FEFECE" filter="url(#f1nfi994szn87m)" height="144.8516" id="CompositeTensorDataAdapter" style="stroke:#A80036;stroke-width:1.5;" width="211" x="234.5" y="519.6406"/><ellipse cx="249.5" cy="535.6406" fill="#ADD1B2" rx="11" ry="11" style="stroke:#A80036;stroke-width:1.0;"/><path d="M252.2656,531.5156 Q252.4219,531.2969 252.6094,531.1875 Q252.7969,531.0781 253.0156,531.0781 Q253.3906,531.0781 253.625,531.3438 Q253.8594,531.5938 253.8594,532.2031 L253.8594,533.6563 Q253.8594,534.2656 253.625,534.5313 Q253.3906,534.7969 253.0156,534.7969 Q252.6719,534.7969 252.4688,534.5938 Q252.2656,534.4063 252.1563,533.8906 Q252.1094,533.5313 251.9219,533.3438 Q251.5938,532.9688 250.9844,532.75 Q250.375,532.5313 249.75,532.5313 Q248.9844,532.5313 248.3438,532.8594 Q247.7188,533.1875 247.2188,533.9375 Q246.7344,534.6875 246.7344,535.7188 L246.7344,536.8125 Q246.7344,538.0469 247.625,538.875 Q248.5156,539.6875 250.1094,539.6875 Q251.0469,539.6875 251.7031,539.4375 Q252.0938,539.2813 252.5156,538.8438 Q252.7813,538.5781 252.9219,538.5 Q253.0781,538.4219 253.2813,538.4219 Q253.6094,538.4219 253.8594,538.6875 Q254.125,538.9375 254.125,539.2813 Q254.125,539.625 253.7813,540.0313 Q253.2813,540.6094 252.4844,540.9375 Q251.4063,541.3906 250.1094,541.3906 Q248.5938,541.3906 247.3906,540.7656 Q246.4063,540.2656 245.7188,539.2031 Q245.0313,538.125 245.0313,536.8438 L245.0313,535.6875 Q245.0313,534.3594 245.6406,533.2188 Q246.2656,532.0625 247.3594,531.4531 Q248.4531,530.8281 249.6875,530.8281 Q250.4219,530.8281 251.0625,531 Q251.7188,531.1563 252.2656,531.5156 Z " fill="#000000"/><ellipse cx="268.5" cy="535.1406" fill="#84BE84" rx="3" ry="3" style="stroke:#038048;stroke-width:1.0;"/><text fill="#000000" font-family="sans-serif" font-size="12" lengthAdjust="spacing" textLength="168" x="274.5" y="540.5508">CompositeTensorDataAdapter</text><line style="stroke:#A80036;stroke-width:1.5;" x1="235.5" x2="444.5" y1="551.6406" y2="551.6406"/><polygon fill="none" points="245.5,557.6406,249.5,561.6406,245.5,565.6406,241.5,561.6406" style="stroke:#B38D22;stroke-width:1.0;"/><text fill="#000000" font-family="sans-serif" font-size="11" lengthAdjust="spacing" textLength="82" x="254.5" y="567.0596">_dataset:Dataset</text><line style="stroke:#A80036;stroke-width:1.5;" x1="235.5" x2="444.5" y1="573.4766" y2="573.4766"/><ellipse cx="245.5" cy="584.4766" fill="#84BE84" rx="3" ry="3" style="stroke:#038048;stroke-width:1.0;"/><text fill="#000000" font-family="sans-serif" font-size="11" lengthAdjust="spacing" text-decoration="underline" textLength="90" x="254.5" y="588.8955">can_handle(): bool</text><rect fill="#F24D5C" height="6" style="stroke:#C82930;stroke-width:1.0;" width="6" x="242.5" y="595.3125"/><text fill="#000000" font-family="sans-serif" font-size="11" lengthAdjust="spacing" textLength="150" x="254.5" y="602.7314">is_tensor_or_composite(): bool</text><ellipse cx="245.5" cy="612.1484" fill="#84BE84" rx="3" ry="3" style="stroke:#038048;stroke-width:1.0;"/><text fill="#000000" font-family="sans-serif" font-size="11" lengthAdjust="spacing" textLength="153" x="254.5" y="616.5674">should_recreate_iterator(): bool</text><ellipse cx="245.5" cy="625.9844" fill="#84BE84" rx="3" ry="3" style="stroke:#038048;stroke-width:1.0;"/><text fill="#000000" font-family="sans-serif" font-size="11" lengthAdjust="spacing" textLength="108" x="254.5" y="630.4033">get_dataset(): Dataset</text><ellipse cx="245.5" cy="639.8203" fill="#84BE84" rx="3" ry="3" style="stroke:#038048;stroke-width:1.0;"/><text fill="#000000" font-family="sans-serif" font-size="11" lengthAdjust="spacing" textLength="66" x="254.5" y="644.2393">get_size(): int</text><ellipse cx="245.5" cy="653.6563" fill="#84BE84" rx="3" ry="3" style="stroke:#038048;stroke-width:1.0;"/><text fill="#000000" font-family="sans-serif" font-size="11" lengthAdjust="spacing" textLength="78" x="254.5" y="658.0752">batch_size(): int</text><!--MD5=[183effd59b6a856b0f8a60e2a4cf4e0d]
class ListsOfScalarsDataAdapter--><rect codeLine="43" fill="#FEFECE" filter="url(#f1nfi994szn87m)" height="144.8516" id="ListsOfScalarsDataAdapter" style="stroke:#A80036;stroke-width:1.5;" width="230" x="140" y="314.6406"/><ellipse cx="172.1" cy="330.6406" fill="#ADD1B2" rx="11" ry="11" style="stroke:#A80036;stroke-width:1.0;"/><path d="M174.8656,326.5156 Q175.0219,326.2969 175.2094,326.1875 Q175.3969,326.0781 175.6156,326.0781 Q175.9906,326.0781 176.225,326.3438 Q176.4594,326.5938 176.4594,327.2031 L176.4594,328.6563 Q176.4594,329.2656 176.225,329.5313 Q175.9906,329.7969 175.6156,329.7969 Q175.2719,329.7969 175.0688,329.5938 Q174.8656,329.4063 174.7563,328.8906 Q174.7094,328.5313 174.5219,328.3438 Q174.1938,327.9688 173.5844,327.75 Q172.975,327.5313 172.35,327.5313 Q171.5844,327.5313 170.9438,327.8594 Q170.3188,328.1875 169.8188,328.9375 Q169.3344,329.6875 169.3344,330.7188 L169.3344,331.8125 Q169.3344,333.0469 170.225,333.875 Q171.1156,334.6875 172.7094,334.6875 Q173.6469,334.6875 174.3031,334.4375 Q174.6938,334.2813 175.1156,333.8438 Q175.3813,333.5781 175.5219,333.5 Q175.6781,333.4219 175.8813,333.4219 Q176.2094,333.4219 176.4594,333.6875 Q176.725,333.9375 176.725,334.2813 Q176.725,334.625 176.3813,335.0313 Q175.8813,335.6094 175.0844,335.9375 Q174.0063,336.3906 172.7094,336.3906 Q171.1938,336.3906 169.9906,335.7656 Q169.0063,335.2656 168.3188,334.2031 Q167.6313,333.125 167.6313,331.8438 L167.6313,330.6875 Q167.6313,329.3594 168.2406,328.2188 Q168.8656,327.0625 169.9594,326.4531 Q171.0531,325.8281 172.2875,325.8281 Q173.0219,325.8281 173.6625,326 Q174.3188,326.1563 174.8656,326.5156 Z " fill="#000000"/><ellipse cx="194.9" cy="330.1406" fill="#84BE84" rx="3" ry="3" style="stroke:#038048;stroke-width:1.0;"/><text fill="#000000" font-family="sans-serif" font-size="12" lengthAdjust="spacing" textLength="149" x="200.9" y="335.5508">ListsOfScalarsDataAdapter</text><line style="stroke:#A80036;stroke-width:1.5;" x1="141" x2="369" y1="346.6406" y2="346.6406"/><polygon fill="none" points="151,352.6406,155,356.6406,151,360.6406,147,356.6406" style="stroke:#B38D22;stroke-width:1.0;"/><text fill="#000000" font-family="sans-serif" font-size="11" lengthAdjust="spacing" textLength="204" x="160" y="362.0596">_internal_adapter: TensorLikeDataAdapter</text><line style="stroke:#A80036;stroke-width:1.5;" x1="141" x2="369" y1="368.4766" y2="368.4766"/><ellipse cx="151" cy="379.4766" fill="#84BE84" rx="3" ry="3" style="stroke:#038048;stroke-width:1.0;"/><text fill="#000000" font-family="sans-serif" font-size="11" lengthAdjust="spacing" text-decoration="underline" textLength="90" x="160" y="383.8955">can_handle(): bool</text><rect fill="#F24D5C" height="6" style="stroke:#C82930;stroke-width:1.0;" width="6" x="148" y="390.3125"/><text fill="#000000" font-family="sans-serif" font-size="11" lengthAdjust="spacing" textLength="119" x="160" y="397.7314">is_list_of_scalars(): bool</text><ellipse cx="151" cy="407.1484" fill="#84BE84" rx="3" ry="3" style="stroke:#038048;stroke-width:1.0;"/><text fill="#000000" font-family="sans-serif" font-size="11" lengthAdjust="spacing" textLength="153" x="160" y="411.5674">should_recreate_iterator(): bool</text><ellipse cx="151" cy="420.9844" fill="#84BE84" rx="3" ry="3" style="stroke:#038048;stroke-width:1.0;"/><text fill="#000000" font-family="sans-serif" font-size="11" lengthAdjust="spacing" textLength="108" x="160" y="425.4033">get_dataset(): Dataset</text><ellipse cx="151" cy="434.8203" fill="#84BE84" rx="3" ry="3" style="stroke:#038048;stroke-width:1.0;"/><text fill="#000000" font-family="sans-serif" font-size="11" lengthAdjust="spacing" textLength="66" x="160" y="439.2393">get_size(): int</text><ellipse cx="151" cy="448.6563" fill="#84BE84" rx="3" ry="3" style="stroke:#038048;stroke-width:1.0;"/><text fill="#000000" font-family="sans-serif" font-size="11" lengthAdjust="spacing" textLength="78" x="160" y="453.0752">batch_size(): int</text><!--MD5=[358bb9f2ae3546a855d582227a04799c]
class DatasetAdapter--><rect codeLine="53" fill="#FEFECE" filter="url(#f1nfi994szn87m)" height="131.0156" id="DatasetAdapter" style="stroke:#A80036;stroke-width:1.5;" width="179" x="642.5" y="526.6406"/><ellipse cx="680.45" cy="542.6406" fill="#ADD1B2" rx="11" ry="11" style="stroke:#A80036;stroke-width:1.0;"/><path d="M683.2156,538.5156 Q683.3719,538.2969 683.5594,538.1875 Q683.7469,538.0781 683.9656,538.0781 Q684.3406,538.0781 684.575,538.3438 Q684.8094,538.5938 684.8094,539.2031 L684.8094,540.6563 Q684.8094,541.2656 684.575,541.5313 Q684.3406,541.7969 683.9656,541.7969 Q683.6219,541.7969 683.4188,541.5938 Q683.2156,541.4063 683.1063,540.8906 Q683.0594,540.5313 682.8719,540.3438 Q682.5438,539.9688 681.9344,539.75 Q681.325,539.5313 680.7,539.5313 Q679.9344,539.5313 679.2938,539.8594 Q678.6688,540.1875 678.1688,540.9375 Q677.6844,541.6875 677.6844,542.7188 L677.6844,543.8125 Q677.6844,545.0469 678.575,545.875 Q679.4656,546.6875 681.0594,546.6875 Q681.9969,546.6875 682.6531,546.4375 Q683.0438,546.2813 683.4656,545.8438 Q683.7313,545.5781 683.8719,545.5 Q684.0281,545.4219 684.2313,545.4219 Q684.5594,545.4219 684.8094,545.6875 Q685.075,545.9375 685.075,546.2813 Q685.075,546.625 684.7313,547.0313 Q684.2313,547.6094 683.4344,547.9375 Q682.3563,548.3906 681.0594,548.3906 Q679.5438,548.3906 678.3406,547.7656 Q677.3563,547.2656 676.6688,546.2031 Q675.9813,545.125 675.9813,543.8438 L675.9813,542.6875 Q675.9813,541.3594 676.5906,540.2188 Q677.2156,539.0625 678.3094,538.4531 Q679.4031,537.8281 680.6375,537.8281 Q681.3719,537.8281 682.0125,538 Q682.6688,538.1563 683.2156,538.5156 Z " fill="#000000"/><ellipse cx="704.55" cy="542.1406" fill="#84BE84" rx="3" ry="3" style="stroke:#038048;stroke-width:1.0;"/><text fill="#000000" font-family="sans-serif" font-size="12" lengthAdjust="spacing" textLength="85" x="710.55" y="547.5508">DatasetAdapter</text><line style="stroke:#A80036;stroke-width:1.5;" x1="643.5" x2="820.5" y1="558.6406" y2="558.6406"/><polygon fill="none" points="653.5,564.6406,657.5,568.6406,653.5,572.6406,649.5,568.6406" style="stroke:#B38D22;stroke-width:1.0;"/><text fill="#000000" font-family="sans-serif" font-size="11" lengthAdjust="spacing" textLength="82" x="662.5" y="574.0596">_dataset:Dataset</text><line style="stroke:#A80036;stroke-width:1.5;" x1="643.5" x2="820.5" y1="580.4766" y2="580.4766"/><ellipse cx="653.5" cy="591.4766" fill="#84BE84" rx="3" ry="3" style="stroke:#038048;stroke-width:1.0;"/><text fill="#000000" font-family="sans-serif" font-size="11" lengthAdjust="spacing" text-decoration="underline" textLength="90" x="662.5" y="595.8955">can_handle(): bool</text><ellipse cx="653.5" cy="605.3125" fill="#84BE84" rx="3" ry="3" style="stroke:#038048;stroke-width:1.0;"/><text fill="#000000" font-family="sans-serif" font-size="11" lengthAdjust="spacing" textLength="153" x="662.5" y="609.7314">should_recreate_iterator(): bool</text><ellipse cx="653.5" cy="619.1484" fill="#84BE84" rx="3" ry="3" style="stroke:#038048;stroke-width:1.0;"/><text fill="#000000" font-family="sans-serif" font-size="11" lengthAdjust="spacing" textLength="108" x="662.5" y="623.5674">get_dataset(): Dataset</text><ellipse cx="653.5" cy="632.9844" fill="#84BE84" rx="3" ry="3" style="stroke:#038048;stroke-width:1.0;"/><text fill="#000000" font-family="sans-serif" font-size="11" lengthAdjust="spacing" textLength="66" x="662.5" y="637.4033">get_size(): int</text><ellipse cx="653.5" cy="646.8203" fill="#84BE84" rx="3" ry="3" style="stroke:#038048;stroke-width:1.0;"/><text fill="#000000" font-family="sans-serif" font-size="11" lengthAdjust="spacing" textLength="78" x="662.5" y="651.2393">batch_size(): int</text><!--MD5=[74d21478f486daa3b615c56840933a4c]
class GeneratorDataAdapter--><rect codeLine="62" fill="#FEFECE" filter="url(#f1nfi994szn87m)" height="144.8516" id="GeneratorDataAdapter" style="stroke:#A80036;stroke-width:1.5;" width="179" x="856.5" y="519.6406"/><ellipse cx="877.35" cy="535.6406" fill="#ADD1B2" rx="11" ry="11" style="stroke:#A80036;stroke-width:1.0;"/><path d="M880.1156,531.5156 Q880.2719,531.2969 880.4594,531.1875 Q880.6469,531.0781 880.8656,531.0781 Q881.2406,531.0781 881.475,531.3438 Q881.7094,531.5938 881.7094,532.2031 L881.7094,533.6563 Q881.7094,534.2656 881.475,534.5313 Q881.2406,534.7969 880.8656,534.7969 Q880.5219,534.7969 880.3188,534.5938 Q880.1156,534.4063 880.0063,533.8906 Q879.9594,533.5313 879.7719,533.3438 Q879.4438,532.9688 878.8344,532.75 Q878.225,532.5313 877.6,532.5313 Q876.8344,532.5313 876.1938,532.8594 Q875.5688,533.1875 875.0688,533.9375 Q874.5844,534.6875 874.5844,535.7188 L874.5844,536.8125 Q874.5844,538.0469 875.475,538.875 Q876.3656,539.6875 877.9594,539.6875 Q878.8969,539.6875 879.5531,539.4375 Q879.9438,539.2813 880.3656,538.8438 Q880.6313,538.5781 880.7719,538.5 Q880.9281,538.4219 881.1313,538.4219 Q881.4594,538.4219 881.7094,538.6875 Q881.975,538.9375 881.975,539.2813 Q881.975,539.625 881.6313,540.0313 Q881.1313,540.6094 880.3344,540.9375 Q879.2563,541.3906 877.9594,541.3906 Q876.4438,541.3906 875.2406,540.7656 Q874.2563,540.2656 873.5688,539.2031 Q872.8813,538.125 872.8813,536.8438 L872.8813,535.6875 Q872.8813,534.3594 873.4906,533.2188 Q874.1156,532.0625 875.2094,531.4531 Q876.3031,530.8281 877.5375,530.8281 Q878.2719,530.8281 878.9125,531 Q879.5688,531.1563 880.1156,531.5156 Z " fill="#000000"/><ellipse cx="897.65" cy="535.1406" fill="#84BE84" rx="3" ry="3" style="stroke:#038048;stroke-width:1.0;"/><text fill="#000000" font-family="sans-serif" font-size="12" lengthAdjust="spacing" textLength="123" x="903.65" y="540.5508">GeneratorDataAdapter</text><line style="stroke:#A80036;stroke-width:1.5;" x1="857.5" x2="1034.5" y1="551.6406" y2="551.6406"/><polygon fill="none" points="867.5,557.6406,871.5,561.6406,867.5,565.6406,863.5,561.6406" style="stroke:#B38D22;stroke-width:1.0;"/><text fill="#000000" font-family="sans-serif" font-size="11" lengthAdjust="spacing" textLength="82" x="876.5" y="567.0596">_dataset:Dataset</text><line style="stroke:#A80036;stroke-width:1.5;" x1="857.5" x2="1034.5" y1="573.4766" y2="573.4766"/><ellipse cx="867.5" cy="584.4766" fill="#84BE84" rx="3" ry="3" style="stroke:#038048;stroke-width:1.0;"/><text fill="#000000" font-family="sans-serif" font-size="11" lengthAdjust="spacing" text-decoration="underline" textLength="90" x="876.5" y="588.8955">can_handle(): bool</text><polygon fill="#FFFF44" points="867.5,593.3125,871.5,597.3125,867.5,601.3125,863.5,597.3125" style="stroke:#B38D22;stroke-width:1.0;"/><text fill="#000000" font-family="sans-serif" font-size="11" lengthAdjust="spacing" textLength="147" x="876.5" y="602.7314">_standardize_batch(): Dataset</text><ellipse cx="867.5" cy="612.1484" fill="#84BE84" rx="3" ry="3" style="stroke:#038048;stroke-width:1.0;"/><text fill="#000000" font-family="sans-serif" font-size="11" lengthAdjust="spacing" textLength="153" x="876.5" y="616.5674">should_recreate_iterator(): bool</text><ellipse cx="867.5" cy="625.9844" fill="#84BE84" rx="3" ry="3" style="stroke:#038048;stroke-width:1.0;"/><text fill="#000000" font-family="sans-serif" font-size="11" lengthAdjust="spacing" textLength="108" x="876.5" y="630.4033">get_dataset(): Dataset</text><ellipse cx="867.5" cy="639.8203" fill="#84BE84" rx="3" ry="3" style="stroke:#038048;stroke-width:1.0;"/><text fill="#000000" font-family="sans-serif" font-size="11" lengthAdjust="spacing" textLength="66" x="876.5" y="644.2393">get_size(): int</text><ellipse cx="867.5" cy="653.6563" fill="#84BE84" rx="3" ry="3" style="stroke:#038048;stroke-width:1.0;"/><text fill="#000000" font-family="sans-serif" font-size="11" lengthAdjust="spacing" textLength="78" x="876.5" y="658.0752">batch_size(): int</text><!--MD5=[b3b6fe919bc13de872e60c51bc794026]
class DatasetCreatorAdapter--><rect codeLine="72" fill="#FEFECE" filter="url(#f1nfi994szn87m)" height="131.0156" id="DatasetCreatorAdapter" style="stroke:#A80036;stroke-width:1.5;" width="179" x="476.5" y="321.6406"/><ellipse cx="496" cy="337.6406" fill="#ADD1B2" rx="11" ry="11" style="stroke:#A80036;stroke-width:1.0;"/><path d="M498.7656,333.5156 Q498.9219,333.2969 499.1094,333.1875 Q499.2969,333.0781 499.5156,333.0781 Q499.8906,333.0781 500.125,333.3438 Q500.3594,333.5938 500.3594,334.2031 L500.3594,335.6563 Q500.3594,336.2656 500.125,336.5313 Q499.8906,336.7969 499.5156,336.7969 Q499.1719,336.7969 498.9688,336.5938 Q498.7656,336.4063 498.6563,335.8906 Q498.6094,335.5313 498.4219,335.3438 Q498.0938,334.9688 497.4844,334.75 Q496.875,334.5313 496.25,334.5313 Q495.4844,334.5313 494.8438,334.8594 Q494.2188,335.1875 493.7188,335.9375 Q493.2344,336.6875 493.2344,337.7188 L493.2344,338.8125 Q493.2344,340.0469 494.125,340.875 Q495.0156,341.6875 496.6094,341.6875 Q497.5469,341.6875 498.2031,341.4375 Q498.5938,341.2813 499.0156,340.8438 Q499.2813,340.5781 499.4219,340.5 Q499.5781,340.4219 499.7813,340.4219 Q500.1094,340.4219 500.3594,340.6875 Q500.625,340.9375 500.625,341.2813 Q500.625,341.625 500.2813,342.0313 Q499.7813,342.6094 498.9844,342.9375 Q497.9063,343.3906 496.6094,343.3906 Q495.0938,343.3906 493.8906,342.7656 Q492.9063,342.2656 492.2188,341.2031 Q491.5313,340.125 491.5313,338.8438 L491.5313,337.6875 Q491.5313,336.3594 492.1406,335.2188 Q492.7656,334.0625 493.8594,333.4531 Q494.9531,332.8281 496.1875,332.8281 Q496.9219,332.8281 497.5625,333 Q498.2188,333.1563 498.7656,333.5156 Z " fill="#000000"/><ellipse cx="516" cy="337.1406" fill="#84BE84" rx="3" ry="3" style="stroke:#038048;stroke-width:1.0;"/><text fill="#000000" font-family="sans-serif" font-size="12" lengthAdjust="spacing" textLength="126" x="522" y="342.5508">DatasetCreatorAdapter</text><line style="stroke:#A80036;stroke-width:1.5;" x1="477.5" x2="654.5" y1="353.6406" y2="353.6406"/><ellipse cx="487.5" cy="364.6406" rx="3" ry="3" style="stroke:#038048;stroke-width:1.0;fill:none;"/><text fill="#000000" font-family="sans-serif" font-size="11" lengthAdjust="spacing" textLength="153" x="496.5" y="369.0596">dataset_creator:DatasetCreator</text><line style="stroke:#A80036;stroke-width:1.5;" x1="477.5" x2="654.5" y1="375.4766" y2="375.4766"/><ellipse cx="487.5" cy="386.4766" fill="#84BE84" rx="3" ry="3" style="stroke:#038048;stroke-width:1.0;"/><text fill="#000000" font-family="sans-serif" font-size="11" lengthAdjust="spacing" text-decoration="underline" textLength="90" x="496.5" y="390.8955">can_handle(): bool</text><ellipse cx="487.5" cy="400.3125" fill="#84BE84" rx="3" ry="3" style="stroke:#038048;stroke-width:1.0;"/><text fill="#000000" font-family="sans-serif" font-size="11" lengthAdjust="spacing" textLength="153" x="496.5" y="404.7314">should_recreate_iterator(): bool</text><ellipse cx="487.5" cy="414.1484" fill="#84BE84" rx="3" ry="3" style="stroke:#038048;stroke-width:1.0;"/><text fill="#000000" font-family="sans-serif" font-size="11" lengthAdjust="spacing" textLength="108" x="496.5" y="418.5674">get_dataset(): Dataset</text><ellipse cx="487.5" cy="427.9844" fill="#84BE84" rx="3" ry="3" style="stroke:#038048;stroke-width:1.0;"/><text fill="#000000" font-family="sans-serif" font-size="11" lengthAdjust="spacing" textLength="66" x="496.5" y="432.4033">get_size(): int</text><ellipse cx="487.5" cy="441.8203" fill="#84BE84" rx="3" ry="3" style="stroke:#038048;stroke-width:1.0;"/><text fill="#000000" font-family="sans-serif" font-size="11" lengthAdjust="spacing" textLength="78" x="496.5" y="446.2393">batch_size(): int</text><!--MD5=[55b8091c86a9251805cfda2fc2803929]
class GenericArrayLikeDataAdapter--><rect codeLine="80" fill="#FEFECE" filter="url(#f1nfi994szn87m)" height="75.6719" id="GenericArrayLikeDataAdapter" style="stroke:#A80036;stroke-width:1.5;" width="204" x="7" y="731.6406"/><ellipse cx="22" cy="747.6406" fill="#ADD1B2" rx="11" ry="11" style="stroke:#A80036;stroke-width:1.0;"/><path d="M24.7656,743.5156 Q24.9219,743.2969 25.1094,743.1875 Q25.2969,743.0781 25.5156,743.0781 Q25.8906,743.0781 26.125,743.3438 Q26.3594,743.5938 26.3594,744.2031 L26.3594,745.6563 Q26.3594,746.2656 26.125,746.5313 Q25.8906,746.7969 25.5156,746.7969 Q25.1719,746.7969 24.9688,746.5938 Q24.7656,746.4063 24.6563,745.8906 Q24.6094,745.5313 24.4219,745.3438 Q24.0938,744.9688 23.4844,744.75 Q22.875,744.5313 22.25,744.5313 Q21.4844,744.5313 20.8438,744.8594 Q20.2188,745.1875 19.7188,745.9375 Q19.2344,746.6875 19.2344,747.7188 L19.2344,748.8125 Q19.2344,750.0469 20.125,750.875 Q21.0156,751.6875 22.6094,751.6875 Q23.5469,751.6875 24.2031,751.4375 Q24.5938,751.2813 25.0156,750.8438 Q25.2813,750.5781 25.4219,750.5 Q25.5781,750.4219 25.7813,750.4219 Q26.1094,750.4219 26.3594,750.6875 Q26.625,750.9375 26.625,751.2813 Q26.625,751.625 26.2813,752.0313 Q25.7813,752.6094 24.9844,752.9375 Q23.9063,753.3906 22.6094,753.3906 Q21.0938,753.3906 19.8906,752.7656 Q18.9063,752.2656 18.2188,751.2031 Q17.5313,750.125 17.5313,748.8438 L17.5313,747.6875 Q17.5313,746.3594 18.1406,745.2188 Q18.7656,744.0625 19.8594,743.4531 Q20.9531,742.8281 22.1875,742.8281 Q22.9219,742.8281 23.5625,743 Q24.2188,743.1563 24.7656,743.5156 Z " fill="#000000"/><ellipse cx="41" cy="747.1406" fill="#84BE84" rx="3" ry="3" style="stroke:#038048;stroke-width:1.0;"/><text fill="#000000" font-family="sans-serif" font-size="12" lengthAdjust="spacing" textLength="161" x="47" y="752.5508">GenericArrayLikeDataAdapter</text><line style="stroke:#A80036;stroke-width:1.5;" x1="8" x2="210" y1="763.6406" y2="763.6406"/><line style="stroke:#A80036;stroke-width:1.5;" x1="8" x2="210" y1="771.6406" y2="771.6406"/><ellipse cx="18" cy="782.6406" fill="#84BE84" rx="3" ry="3" style="stroke:#038048;stroke-width:1.0;"/><text fill="#000000" font-family="sans-serif" font-size="11" lengthAdjust="spacing" text-decoration="underline" textLength="90" x="27" y="787.0596">can_handle(): bool</text><ellipse cx="18" cy="796.4766" fill="#84BE84" rx="3" ry="3" style="stroke:#038048;stroke-width:1.0;"/><text fill="#000000" font-family="sans-serif" font-size="11" lengthAdjust="spacing" textLength="168" x="27" y="800.8955">slice_inputs(Dataset, List): Dataset</text><!--MD5=[0b56c69bae6ec82b6db21f9ee86e0ac1]
class KerasSequenceAdapter--><rect codeLine="84" fill="#FEFECE" filter="url(#f1nfi994szn87m)" height="89.5078" id="KerasSequenceAdapter" style="stroke:#A80036;stroke-width:1.5;" width="179" x="856.5" y="724.6406"/><ellipse cx="873.75" cy="740.6406" fill="#ADD1B2" rx="11" ry="11" style="stroke:#A80036;stroke-width:1.0;"/><path d="M876.5156,736.5156 Q876.6719,736.2969 876.8594,736.1875 Q877.0469,736.0781 877.2656,736.0781 Q877.6406,736.0781 877.875,736.3438 Q878.1094,736.5938 878.1094,737.2031 L878.1094,738.6563 Q878.1094,739.2656 877.875,739.5313 Q877.6406,739.7969 877.2656,739.7969 Q876.9219,739.7969 876.7188,739.5938 Q876.5156,739.4063 876.4063,738.8906 Q876.3594,738.5313 876.1719,738.3438 Q875.8438,737.9688 875.2344,737.75 Q874.625,737.5313 874,737.5313 Q873.2344,737.5313 872.5938,737.8594 Q871.9688,738.1875 871.4688,738.9375 Q870.9844,739.6875 870.9844,740.7188 L870.9844,741.8125 Q870.9844,743.0469 871.875,743.875 Q872.7656,744.6875 874.3594,744.6875 Q875.2969,744.6875 875.9531,744.4375 Q876.3438,744.2813 876.7656,743.8438 Q877.0313,743.5781 877.1719,743.5 Q877.3281,743.4219 877.5313,743.4219 Q877.8594,743.4219 878.1094,743.6875 Q878.375,743.9375 878.375,744.2813 Q878.375,744.625 878.0313,745.0313 Q877.5313,745.6094 876.7344,745.9375 Q875.6563,746.3906 874.3594,746.3906 Q872.8438,746.3906 871.6406,745.7656 Q870.6563,745.2656 869.9688,744.2031 Q869.2813,743.125 869.2813,741.8438 L869.2813,740.6875 Q869.2813,739.3594 869.8906,738.2188 Q870.5156,737.0625 871.6094,736.4531 Q872.7031,735.8281 873.9375,735.8281 Q874.6719,735.8281 875.3125,736 Q875.9688,736.1563 876.5156,736.5156 Z " fill="#000000"/><ellipse cx="893.25" cy="740.1406" fill="#84BE84" rx="3" ry="3" style="stroke:#038048;stroke-width:1.0;"/><text fill="#000000" font-family="sans-serif" font-size="12" lengthAdjust="spacing" textLength="131" x="899.25" y="745.5508">KerasSequenceAdapter</text><line style="stroke:#A80036;stroke-width:1.5;" x1="857.5" x2="1034.5" y1="756.6406" y2="756.6406"/><line style="stroke:#A80036;stroke-width:1.5;" x1="857.5" x2="1034.5" y1="764.6406" y2="764.6406"/><ellipse cx="867.5" cy="775.6406" fill="#84BE84" rx="3" ry="3" style="stroke:#038048;stroke-width:1.0;"/><text fill="#000000" font-family="sans-serif" font-size="11" lengthAdjust="spacing" text-decoration="underline" textLength="90" x="876.5" y="780.0596">can_handle(): bool</text><text fill="#000000" font-family="sans-serif" font-size="11" lengthAdjust="spacing" textLength="153" x="876.5" y="793.8955">should_recreate_iterator(): bool</text><ellipse cx="867.5" cy="803.3125" fill="#84BE84" rx="3" ry="3" style="stroke:#038048;stroke-width:1.0;"/><text fill="#000000" font-family="sans-serif" font-size="11" lengthAdjust="spacing" textLength="66" x="876.5" y="807.7314">get_size(): int</text><!--MD5=[961498d3bb79ba8e6021cfd7fcc2b417]
reverse link DataAdapter to TensorLikeDataAdapter--><path d="M384.12,217.4806 C286.49,237.9906 154.36,272.5906 122,314.6406 C75.84,374.6206 81.56,465.4606 92.79,526.4806 " fill="none" id="DataAdapter-backto-TensorLikeDataAdapter" style="stroke:#A80036;stroke-width:1.0;"/><polygon fill="none" points="382.77,210.6106,403.77,213.4406,385.59,224.3206,382.77,210.6106" style="stroke:#A80036;stroke-width:1.0;"/><!--MD5=[7f3855a0826836a84f9e04a5c765f5a8]
reverse link DataAdapter to CompositeTensorDataAdapter--><path d="M464.15,273.5106 C436.33,344.6806 395.17,450.0006 367.97,519.5706 " fill="none" id="DataAdapter-backto-CompositeTensorDataAdapter" style="stroke:#A80036;stroke-width:1.0;"/><polygon fill="none" points="457.64,270.9306,471.44,254.8506,470.68,276.0306,457.64,270.9306" style="stroke:#A80036;stroke-width:1.0;"/><!--MD5=[f26afe3b4c81722b43ff43d9eb69481b]
reverse link DataAdapter to ListsOfScalarsDataAdapter--><path d="M405.04,267.4906 C385.67,282.8106 365.15,299.0306 345.71,314.4106 " fill="none" id="DataAdapter-backto-ListsOfScalarsDataAdapter" style="stroke:#A80036;stroke-width:1.0;"/><polygon fill="none" points="400.96,261.7906,420.99,254.8706,409.65,272.7706,400.96,261.7906" style="stroke:#A80036;stroke-width:1.0;"/><!--MD5=[ac02a2e0305a1f6a7ab2c36014e52fca]
reverse link DataAdapter to DatasetAdapter--><path d="M601.58,248.5306 C628.49,266.0606 654.83,288.0906 673,314.6406 C716.24,377.8306 728.69,466.6906 731.82,526.4606 " fill="none" id="DataAdapter-backto-DatasetAdapter" style="stroke:#A80036;stroke-width:1.0;"/><polygon fill="none" points="597.72,254.3806,584.36,237.9306,605.06,242.4506,597.72,254.3806" style="stroke:#A80036;stroke-width:1.0;"/><!--MD5=[eefd008c88143be6744c38b2822c05ac]
reverse link DataAdapter to GeneratorDataAdapter--><path d="M602.39,240.9306 C642.86,260.1506 687.74,285.1206 724,314.6406 C796.09,373.3306 860.37,458.9806 900.98,519.3706 " fill="none" id="DataAdapter-backto-GeneratorDataAdapter" style="stroke:#A80036;stroke-width:1.0;"/><polygon fill="none" points="599.38,247.2506,584.16,232.5006,605.25,234.5406,599.38,247.2506" style="stroke:#A80036;stroke-width:1.0;"/><!--MD5=[237f1dc72534e5e3e5fdb4dde6d48e83]
reverse link DataAdapter to DatasetCreatorAdapter--><path d="M523.18,273.7306 C529.22,289.5806 535.52,306.1306 541.38,321.5006 " fill="none" id="DataAdapter-backto-DatasetCreatorAdapter" style="stroke:#A80036;stroke-width:1.0;"/><polygon fill="none" points="516.57,276.0506,515.99,254.8706,529.65,271.0706,516.57,276.0506" style="stroke:#A80036;stroke-width:1.0;"/><!--MD5=[57e4e089331a5a4ff82f92a904b0186b]
reverse link TensorLikeDataAdapter to GenericArrayLikeDataAdapter--><path d="M109,678.1506 C109,696.9306 109,715.8906 109,731.5606 " fill="none" id="TensorLikeDataAdapter-backto-GenericArrayLikeDataAdapter" style="stroke:#A80036;stroke-width:1.0;"/><polygon fill="none" points="102,677.9906,109,657.9906,116,677.9906,102,677.9906" style="stroke:#A80036;stroke-width:1.0;"/><!--MD5=[3188ff2476f349e3015233bce59b5e22]
reverse link GeneratorDataAdapter to KerasSequenceAdapter--><path d="M946,684.8706 C946,698.6306 946,712.2606 946,724.4006 " fill="none" id="GeneratorDataAdapter-backto-KerasSequenceAdapter" style="stroke:#A80036;stroke-width:1.0;"/><polygon fill="none" points="939,684.7806,946,664.7806,953,684.7806,939,684.7806" style="stroke:#A80036;stroke-width:1.0;"/><!--MD5=[1fc427d452c5435fcaed63be9b3874be]
link client to DataAdapter--><path codeLine="90" d="M494,77.8406 C494,92.7306 494,112.8406 494,132.2006 " fill="none" id="client-to-DataAdapter" style="stroke:#A80036;stroke-width:1.0;"/><polygon fill="#A80036" points="494,137.6406,498,128.6406,494,132.6406,490,128.6406,494,137.6406" style="stroke:#A80036;stroke-width:1.0;"/><!--MD5=[af43c0b267daa1c48c8046a9884df5b7]
link TensorLikeDataAdapter to tf.data.Dataset--><path codeLine="91" d="M199.28,655.4606 C205.18,658.7306 211.12,661.8206 217,664.6406 C311.53,709.8806 430.56,742.0506 495.77,757.7606 " fill="none" id="TensorLikeDataAdapter-to-tf.data.Dataset" style="stroke:#A80036;stroke-width:1.0;"/><polygon fill="#A80036" points="500.76,758.9506,492.9281,752.979,495.8954,757.7951,491.0792,760.7624,500.76,758.9506" style="stroke:#A80036;stroke-width:1.0;"/><!--MD5=[a870c62fe90f33c80ff2e5a65580cecc]
link CompositeTensorDataAdapter to tf.data.Dataset--><path codeLine="92" d="M423.27,664.7806 C454.93,692.0106 489.08,721.4006 512.96,741.9306 " fill="none" id="CompositeTensorDataAdapter-to-tf.data.Dataset" style="stroke:#A80036;stroke-width:1.0;"/><polygon fill="#A80036" points="517,745.4106,512.8057,736.4995,513.2168,742.1414,507.575,742.5526,517,745.4106" style="stroke:#A80036;stroke-width:1.0;"/><!--MD5=[bd2bbe8200f9e5a3a4b0b9fc0500da30]
link GeneratorDataAdapter to tf.data.Dataset--><path codeLine="93" d="M856.48,655.2606 C850.65,658.5806 844.79,661.7406 839,664.6406 C755.87,706.2406 652,738.7106 592.31,755.6606 " fill="none" id="GeneratorDataAdapter-to-tf.data.Dataset" style="stroke:#A80036;stroke-width:1.0;"/><polygon fill="#A80036" points="587.38,757.0506,597.1277,758.4587,592.1924,755.694,594.9571,750.7588,587.38,757.0506" style="stroke:#A80036;stroke-width:1.0;"/><!--MD5=[028b454328d1cf68678912c53138932b]
link ListsOfScalarsDataAdapter to TensorLikeDataAdapter--><path codeLine="94" d="M203.53,459.7106 C188.96,479.9606 173.15,501.9506 158.69,522.0506 " fill="none" id="ListsOfScalarsDataAdapter-to-TensorLikeDataAdapter" style="stroke:#A80036;stroke-width:1.0;"/><polygon fill="#A80036" points="155.63,526.3106,164.1293,521.3346,158.547,522.2497,157.6319,516.6674,155.63,526.3106" style="stroke:#A80036;stroke-width:1.0;"/><!--MD5=[7518049f1f980d966ea9a715fbdc274d]
link DatasetAdapter to tf.data.Dataset--><path codeLine="95" d="M662.8,657.7406 C631.59,686.8706 596.46,719.6706 572.55,741.9906 " fill="none" id="DatasetAdapter-to-tf.data.Dataset" style="stroke:#A80036;stroke-width:1.0;"/><polygon fill="#A80036" points="568.81,745.4806,578.1183,742.2627,572.4648,742.0685,572.659,736.415,568.81,745.4806" style="stroke:#A80036;stroke-width:1.0;"/><!--MD5=[ca74c0d299f6ef60ad6b3fba4ed90e0b]
link DatasetCreatorAdapter to keras.utils.DatasetCreator--><path codeLine="96" d="M559.01,452.6506 C555.3,486.8606 550.89,527.5606 547.81,555.9506 " fill="none" id="DatasetCreatorAdapter-to-keras.utils.DatasetCreator" style="stroke:#A80036;stroke-width:1.0;"/><polygon fill="#A80036" points="547.25,561.1106,552.2033,552.598,547.7928,556.1402,544.2506,551.7296,547.25,561.1106" style="stroke:#A80036;stroke-width:1.0;"/><!--MD5=[f3dab5d938667da4a8ab506c6fe0782f]
link keras.utils.DatasetCreator to tf.data.Dataset--><path codeLine="97" d="M544,623.3106 C544,656.1106 544,708.1106 544,740.2106 " fill="none" id="keras.utils.DatasetCreator-to-tf.data.Dataset" style="stroke:#A80036;stroke-width:1.0;"/><polygon fill="#A80036" points="544,745.5706,548,736.5706,544,740.5706,540,736.5706,544,745.5706" style="stroke:#A80036;stroke-width:1.0;"/><!--MD5=[f9f5885e5adaa8604fef6171c7cdb133]
@startuml

title Keras - Adapter

+class tf.data.Dataset {
}
+class keras.utils.DatasetCreator {
+ dataset_fn:Dataset
}

+class client {
    
}

+abstract class DataAdapter {
    +{static} can_handle(): bool
    +{abstract} get_dataset(): Dataset
    +{abstract} get_size(): int
    +{abstract} batch_size(): int
    +representative_batch_size(): int
}

+class TensorLikeDataAdapter extends DataAdapter {
    #_dataset:Dataset
    +{static} can_handle(): bool
    +get_dataset(): Dataset
    +get_size(): int
    +batch_size(): int
    +representative_batch_size(): int
}



+class CompositeTensorDataAdapter extends DataAdapter {
    #_dataset:Dataset
    +{static} can_handle(): bool
    -is_tensor_or_composite(): bool
    +should_recreate_iterator(): bool
    +get_dataset(): Dataset
    +get_size(): int
    +batch_size(): int
}

+class ListsOfScalarsDataAdapter extends DataAdapter {
    #_internal_adapter: TensorLikeDataAdapter
    +{static} can_handle(): bool
    -is_list_of_scalars(): bool
    +should_recreate_iterator(): bool
    +get_dataset(): Dataset
    +get_size(): int
    +batch_size(): int
}

+class DatasetAdapter extends DataAdapter {
    #_dataset:Dataset
    +{static} can_handle(): bool
    +should_recreate_iterator(): bool
    +get_dataset(): Dataset
    +get_size(): int
    +batch_size(): int
}

+class GeneratorDataAdapter extends DataAdapter {
    #_dataset:Dataset
    +{static} can_handle(): bool
    #_standardize_batch(): Dataset
    +should_recreate_iterator(): bool
    +get_dataset(): Dataset
    +get_size(): int
    +batch_size(): int
}

+class DatasetCreatorAdapter extends DataAdapter {
    +dataset_creator:DatasetCreator
    +{static} can_handle(): bool
    +should_recreate_iterator(): bool
    +get_dataset(): Dataset
    +get_size(): int
    +batch_size(): int
}
+class GenericArrayLikeDataAdapter extends TensorLikeDataAdapter {
    +{static} can_handle(): bool
    +slice_inputs(Dataset, List): Dataset 
}
+class KerasSequenceAdapter extends GeneratorDataAdapter {
    +{static} can_handle(): bool
    should_recreate_iterator(): bool
    +get_size(): int
}

client - -> DataAdapter
TensorLikeDataAdapter - -> tf.data.Dataset
CompositeTensorDataAdapter - -> tf.data.Dataset
GeneratorDataAdapter- ->tf.data.Dataset
ListsOfScalarsDataAdapter- ->TensorLikeDataAdapter
DatasetAdapter- ->tf.data.Dataset
DatasetCreatorAdapter- ->keras.utils.DatasetCreator
keras.utils.DatasetCreator- ->tf.data.Dataset
@enduml

PlantUML version 1.2021.14(Fri Nov 12 23:46:50 ICT 2021)
(GPL source distribution)
Java Runtime: Java(TM) SE Runtime Environment
JVM: Java HotSpot(TM) 64-Bit Server VM
Default Encoding: Cp1252
Language: en
Country: US
--></g></svg>