<?xml version="1.0" encoding="UTF-8" standalone="no"?><svg xmlns="http://www.w3.org/2000/svg" xmlns:xlink="http://www.w3.org/1999/xlink" contentScriptType="application/ecmascript" contentStyleType="text/css" height="609px" preserveAspectRatio="none" style="width:2164px;height:609px;background:#FFFFFF;" version="1.1" viewBox="0 0 2164 609" width="2164px" zoomAndPan="magnify"><defs><filter height="300%" id="faqn7l3idp83d" width="300%" x="-1" y="-1"><feGaussianBlur result="blurOut" stdDeviation="2.0"/><feColorMatrix in="blurOut" result="blurOut2" type="matrix" values="0 0 0 0 0 0 0 0 0 0 0 0 0 0 0 0 0 0 .4 0"/><feOffset dx="4.0" dy="4.0" in="blurOut2" result="blurOut3"/><feBlend in="SourceGraphic" in2="blurOut3" mode="normal"/></filter></defs><g><text fill="#000000" font-family="sans-serif" font-size="18" lengthAdjust="spacing" textLength="142" x="1004.5" y="18.6855">Keras - Decorator</text><!--MD5=[354495e11b5abab1b1401337b6fa44d1]
class Wrapper--><rect codeLine="5" fill="#FEFECE" filter="url(#faqn7l3idp83d)" height="61.8359" id="Wrapper" style="stroke:#A80036;stroke-width:1.5;" width="90" x="863.5" y="186.1406"/><ellipse cx="878.5" cy="202.1406" fill="#A9DCDF" rx="11" ry="11" style="stroke:#A80036;stroke-width:1.0;"/><path d="M880.6875,203.9063 L876.5469,203.9063 L876.125,204.9375 L876.5469,204.9375 Q877.1563,204.9375 877.4219,205.1719 Q877.6875,205.4063 877.6875,205.7969 Q877.6875,206.1719 877.4219,206.4063 Q877.1563,206.6406 876.5469,206.6406 L874.25,206.6406 Q873.6406,206.6406 873.3906,206.4063 Q873.125,206.1719 873.125,205.7813 Q873.125,205.4063 873.4063,205.1719 Q873.6719,204.9219 874.2969,204.9375 L876.9688,198.2813 L875.8594,198.2813 Q875.25,198.2813 874.9844,198.0469 Q874.7188,197.8125 874.7188,197.4219 Q874.7188,197.0469 874.9844,196.8125 Q875.25,196.5781 875.8594,196.5781 L879.5313,196.5781 L882.9219,204.9375 Q883.5156,204.9375 883.7031,205.0781 Q884.0938,205.3438 884.0938,205.7969 Q884.0938,206.1719 883.8281,206.4063 Q883.5781,206.6406 882.9688,206.6406 L880.6719,206.6406 Q880.0625,206.6406 879.7969,206.4063 Q879.5313,206.1719 879.5313,205.7813 Q879.5313,205.4063 879.7969,205.1719 Q880.0625,204.9375 880.6719,204.9375 L881.0938,204.9375 L880.6875,203.9063 Z M879.9688,202.2031 L878.6094,198.8281 L877.2344,202.2031 L879.9688,202.2031 Z " fill="#000000"/><ellipse cx="897.5" cy="201.6406" fill="#84BE84" rx="3" ry="3" style="stroke:#038048;stroke-width:1.0;"/><text fill="#000000" font-family="sans-serif" font-size="12" font-style="italic" lengthAdjust="spacing" textLength="47" x="903.5" y="207.0508">Wrapper</text><line style="stroke:#A80036;stroke-width:1.5;" x1="864.5" x2="952.5" y1="218.1406" y2="218.1406"/><polygon fill="none" points="874.5,224.1406,878.5,228.1406,874.5,232.1406,870.5,228.1406" style="stroke:#B38D22;stroke-width:1.0;"/><text fill="#000000" font-family="sans-serif" font-size="11" lengthAdjust="spacing" textLength="58" x="883.5" y="233.5596">layer: Layer</text><line style="stroke:#A80036;stroke-width:1.5;" x1="864.5" x2="952.5" y1="239.9766" y2="239.9766"/><!--MD5=[a97cfd095b0077d714bcddc8cbc855aa]
class Layer--><rect codeLine="10" fill="#FEFECE" filter="url(#faqn7l3idp83d)" height="158.6875" id="Layer" style="stroke:#A80036;stroke-width:1.5;" width="277" x="1089" y="137.6406"/><ellipse cx="1202.75" cy="153.6406" fill="#ADD1B2" rx="11" ry="11" style="stroke:#A80036;stroke-width:1.0;"/><path d="M1205.5156,149.5156 Q1205.6719,149.2969 1205.8594,149.1875 Q1206.0469,149.0781 1206.2656,149.0781 Q1206.6406,149.0781 1206.875,149.3438 Q1207.1094,149.5938 1207.1094,150.2031 L1207.1094,151.6563 Q1207.1094,152.2656 1206.875,152.5313 Q1206.6406,152.7969 1206.2656,152.7969 Q1205.9219,152.7969 1205.7188,152.5938 Q1205.5156,152.4063 1205.4063,151.8906 Q1205.3594,151.5313 1205.1719,151.3438 Q1204.8438,150.9688 1204.2344,150.75 Q1203.625,150.5313 1203,150.5313 Q1202.2344,150.5313 1201.5938,150.8594 Q1200.9688,151.1875 1200.4688,151.9375 Q1199.9844,152.6875 1199.9844,153.7188 L1199.9844,154.8125 Q1199.9844,156.0469 1200.875,156.875 Q1201.7656,157.6875 1203.3594,157.6875 Q1204.2969,157.6875 1204.9531,157.4375 Q1205.3438,157.2813 1205.7656,156.8438 Q1206.0313,156.5781 1206.1719,156.5 Q1206.3281,156.4219 1206.5313,156.4219 Q1206.8594,156.4219 1207.1094,156.6875 Q1207.375,156.9375 1207.375,157.2813 Q1207.375,157.625 1207.0313,158.0313 Q1206.5313,158.6094 1205.7344,158.9375 Q1204.6563,159.3906 1203.3594,159.3906 Q1201.8438,159.3906 1200.6406,158.7656 Q1199.6563,158.2656 1198.9688,157.2031 Q1198.2813,156.125 1198.2813,154.8438 L1198.2813,153.6875 Q1198.2813,152.3594 1198.8906,151.2188 Q1199.5156,150.0625 1200.6094,149.4531 Q1201.7031,148.8281 1202.9375,148.8281 Q1203.6719,148.8281 1204.3125,149 Q1204.9688,149.1563 1205.5156,149.5156 Z " fill="#000000"/><ellipse cx="1228.25" cy="153.1406" fill="#84BE84" rx="3" ry="3" style="stroke:#038048;stroke-width:1.0;"/><text fill="#000000" font-family="sans-serif" font-size="12" lengthAdjust="spacing" textLength="30" x="1234.25" y="158.5508">Layer</text><line style="stroke:#A80036;stroke-width:1.5;" x1="1090" x2="1365" y1="169.6406" y2="169.6406"/><polygon fill="none" points="1100,175.6406,1104,179.6406,1100,183.6406,1096,179.6406" style="stroke:#B38D22;stroke-width:1.0;"/><text fill="#000000" font-family="sans-serif" font-size="11" lengthAdjust="spacing" textLength="85" x="1109" y="185.0596">trainable: boolean</text><polygon fill="none" points="1100,189.4766,1104,193.4766,1100,197.4766,1096,193.4766" style="stroke:#B38D22;stroke-width:1.0;"/><text fill="#000000" font-family="sans-serif" font-size="11" lengthAdjust="spacing" textLength="60" x="1109" y="198.8955">name: String</text><polygon fill="none" points="1100,203.3125,1104,207.3125,1100,211.3125,1096,207.3125" style="stroke:#B38D22;stroke-width:1.0;"/><text fill="#000000" font-family="sans-serif" font-size="11" lengthAdjust="spacing" textLength="84" x="1109" y="212.7314">dynamic: boolean</text><polygon fill="none" points="1100,217.1484,1104,221.1484,1100,225.1484,1096,221.1484" style="stroke:#B38D22;stroke-width:1.0;"/><text fill="#000000" font-family="sans-serif" font-size="11" lengthAdjust="spacing" textLength="91" x="1109" y="226.5674">losses: list[Tensor]</text><line style="stroke:#A80036;stroke-width:1.5;" x1="1090" x2="1365" y1="232.9844" y2="232.9844"/><ellipse cx="1100" cy="243.9844" fill="#84BE84" rx="3" ry="3" style="stroke:#038048;stroke-width:1.0;"/><text fill="#000000" font-family="sans-serif" font-size="11" lengthAdjust="spacing" textLength="180" x="1109" y="248.4033">build(input_shape:TensorShape):void</text><ellipse cx="1100" cy="257.8203" fill="#84BE84" rx="3" ry="3" style="stroke:#038048;stroke-width:1.0;"/><text fill="#000000" font-family="sans-serif" font-size="11" lengthAdjust="spacing" textLength="232" x="1109" y="262.2393">call(inputs:list[Tensor], *args, **kwargs): Tensor</text><ellipse cx="1100" cy="271.6563" fill="#84BE84" rx="3" ry="3" style="stroke:#038048;stroke-width:1.0;"/><text fill="#000000" font-family="sans-serif" font-size="11" lengthAdjust="spacing" textLength="235" x="1109" y="276.0752">compute_output_shape(input_shape:tuple): tuple</text><ellipse cx="1100" cy="285.4922" fill="#84BE84" rx="3" ry="3" style="stroke:#038048;stroke-width:1.0;"/><text fill="#000000" font-family="sans-serif" font-size="11" lengthAdjust="spacing" textLength="251" x="1109" y="289.9111">compute_mask(inputs:Tensor,mask:Tensor): Tensor</text><!--MD5=[c01d498ef93db6104794081c515d5356]
class TimeDistributed--><rect codeLine="21" fill="#FEFECE" filter="url(#faqn7l3idp83d)" height="75.6719" id="TimeDistributed" style="stroke:#A80036;stroke-width:1.5;" width="465" x="9" y="384.1406"/><ellipse cx="187.75" cy="400.1406" fill="#ADD1B2" rx="11" ry="11" style="stroke:#A80036;stroke-width:1.0;"/><path d="M190.5156,396.0156 Q190.6719,395.7969 190.8594,395.6875 Q191.0469,395.5781 191.2656,395.5781 Q191.6406,395.5781 191.875,395.8438 Q192.1094,396.0938 192.1094,396.7031 L192.1094,398.1563 Q192.1094,398.7656 191.875,399.0313 Q191.6406,399.2969 191.2656,399.2969 Q190.9219,399.2969 190.7188,399.0938 Q190.5156,398.9063 190.4063,398.3906 Q190.3594,398.0313 190.1719,397.8438 Q189.8438,397.4688 189.2344,397.25 Q188.625,397.0313 188,397.0313 Q187.2344,397.0313 186.5938,397.3594 Q185.9688,397.6875 185.4688,398.4375 Q184.9844,399.1875 184.9844,400.2188 L184.9844,401.3125 Q184.9844,402.5469 185.875,403.375 Q186.7656,404.1875 188.3594,404.1875 Q189.2969,404.1875 189.9531,403.9375 Q190.3438,403.7813 190.7656,403.3438 Q191.0313,403.0781 191.1719,403 Q191.3281,402.9219 191.5313,402.9219 Q191.8594,402.9219 192.1094,403.1875 Q192.375,403.4375 192.375,403.7813 Q192.375,404.125 192.0313,404.5313 Q191.5313,405.1094 190.7344,405.4375 Q189.6563,405.8906 188.3594,405.8906 Q186.8438,405.8906 185.6406,405.2656 Q184.6563,404.7656 183.9688,403.7031 Q183.2813,402.625 183.2813,401.3438 L183.2813,400.1875 Q183.2813,398.8594 183.8906,397.7188 Q184.5156,396.5625 185.6094,395.9531 Q186.7031,395.3281 187.9375,395.3281 Q188.6719,395.3281 189.3125,395.5 Q189.9688,395.6563 190.5156,396.0156 Z " fill="#000000"/><ellipse cx="213.25" cy="399.6406" fill="#84BE84" rx="3" ry="3" style="stroke:#038048;stroke-width:1.0;"/><text fill="#000000" font-family="sans-serif" font-size="12" lengthAdjust="spacing" textLength="88" x="219.25" y="405.0508">TimeDistributed</text><line style="stroke:#A80036;stroke-width:1.5;" x1="10" x2="473" y1="416.1406" y2="416.1406"/><line style="stroke:#A80036;stroke-width:1.5;" x1="10" x2="473" y1="424.1406" y2="424.1406"/><polygon fill="#FFFF44" points="20,430.1406,24,434.1406,20,438.1406,16,434.1406" style="stroke:#B38D22;stroke-width:1.0;"/><text fill="#000000" font-family="sans-serif" font-size="11" lengthAdjust="spacing" textLength="439" x="29" y="439.5596">get_shape_tuple(init_tuple:tuple[],tensor:Tensor,start_idx:int,int_shape:TensorShape): tuple</text><polygon fill="#FFFF44" points="20,443.9766,24,447.9766,20,451.9766,16,447.9766" style="stroke:#B38D22;stroke-width:1.0;"/><text fill="#000000" font-family="sans-serif" font-size="11" lengthAdjust="spacing" textLength="190" x="29" y="453.3955">remove_timesteps(dims:tuple[int]): tuple</text><!--MD5=[529699ae87314006e87b27632489edee]
class Dense--><rect codeLine="26" fill="#FEFECE" filter="url(#faqn7l3idp83d)" height="117.1797" id="Dense" style="stroke:#A80036;stroke-width:1.5;" width="174" x="1140.5" y="363.6406"/><ellipse cx="1199.25" cy="379.6406" fill="#ADD1B2" rx="11" ry="11" style="stroke:#A80036;stroke-width:1.0;"/><path d="M1202.0156,375.5156 Q1202.1719,375.2969 1202.3594,375.1875 Q1202.5469,375.0781 1202.7656,375.0781 Q1203.1406,375.0781 1203.375,375.3438 Q1203.6094,375.5938 1203.6094,376.2031 L1203.6094,377.6563 Q1203.6094,378.2656 1203.375,378.5313 Q1203.1406,378.7969 1202.7656,378.7969 Q1202.4219,378.7969 1202.2188,378.5938 Q1202.0156,378.4063 1201.9063,377.8906 Q1201.8594,377.5313 1201.6719,377.3438 Q1201.3438,376.9688 1200.7344,376.75 Q1200.125,376.5313 1199.5,376.5313 Q1198.7344,376.5313 1198.0938,376.8594 Q1197.4688,377.1875 1196.9688,377.9375 Q1196.4844,378.6875 1196.4844,379.7188 L1196.4844,380.8125 Q1196.4844,382.0469 1197.375,382.875 Q1198.2656,383.6875 1199.8594,383.6875 Q1200.7969,383.6875 1201.4531,383.4375 Q1201.8438,383.2813 1202.2656,382.8438 Q1202.5313,382.5781 1202.6719,382.5 Q1202.8281,382.4219 1203.0313,382.4219 Q1203.3594,382.4219 1203.6094,382.6875 Q1203.875,382.9375 1203.875,383.2813 Q1203.875,383.625 1203.5313,384.0313 Q1203.0313,384.6094 1202.2344,384.9375 Q1201.1563,385.3906 1199.8594,385.3906 Q1198.3438,385.3906 1197.1406,384.7656 Q1196.1563,384.2656 1195.4688,383.2031 Q1194.7813,382.125 1194.7813,380.8438 L1194.7813,379.6875 Q1194.7813,378.3594 1195.3906,377.2188 Q1196.0156,376.0625 1197.1094,375.4531 Q1198.2031,374.8281 1199.4375,374.8281 Q1200.1719,374.8281 1200.8125,375 Q1201.4688,375.1563 1202.0156,375.5156 Z " fill="#000000"/><ellipse cx="1224.75" cy="379.1406" fill="#84BE84" rx="3" ry="3" style="stroke:#038048;stroke-width:1.0;"/><text fill="#000000" font-family="sans-serif" font-size="12" lengthAdjust="spacing" textLength="37" x="1230.75" y="384.5508">Dense</text><line style="stroke:#A80036;stroke-width:1.5;" x1="1141.5" x2="1313.5" y1="395.6406" y2="395.6406"/><ellipse cx="1151.5" cy="406.6406" rx="3" ry="3" style="stroke:#038048;stroke-width:1.0;fill:none;"/><text fill="#000000" font-family="sans-serif" font-size="11" lengthAdjust="spacing" textLength="40" x="1160.5" y="411.0596">units: int</text><ellipse cx="1151.5" cy="420.4766" rx="3" ry="3" style="stroke:#038048;stroke-width:1.0;fill:none;"/><text fill="#000000" font-family="sans-serif" font-size="11" lengthAdjust="spacing" textLength="88" x="1160.5" y="424.8955">use_bias: boolean</text><ellipse cx="1151.5" cy="434.3125" rx="3" ry="3" style="stroke:#038048;stroke-width:1.0;fill:none;"/><text fill="#000000" font-family="sans-serif" font-size="11" lengthAdjust="spacing" textLength="132" x="1160.5" y="438.7314">supports_masking: boolean</text><line style="stroke:#A80036;stroke-width:1.5;" x1="1141.5" x2="1313.5" y1="445.1484" y2="445.1484"/><ellipse cx="1151.5" cy="456.1484" fill="#84BE84" rx="3" ry="3" style="stroke:#038048;stroke-width:1.0;"/><text fill="#000000" font-family="sans-serif" font-size="11" lengthAdjust="spacing" textLength="148" x="1160.5" y="460.5674">build(input_shape:list[int]): void</text><ellipse cx="1151.5" cy="469.9844" fill="#84BE84" rx="3" ry="3" style="stroke:#038048;stroke-width:1.0;"/><text fill="#000000" font-family="sans-serif" font-size="11" lengthAdjust="spacing" textLength="109" x="1160.5" y="474.4033">call(inputs:list[Tensor])</text><!--MD5=[65cbfafa14c08583173e9623322810bd]
class RNN--><rect codeLine="34" fill="#FEFECE" filter="url(#faqn7l3idp83d)" height="89.5078" id="RNN" style="stroke:#A80036;stroke-width:1.5;" width="525" x="1350" y="377.1406"/><ellipse cx="1589.25" cy="393.1406" fill="#ADD1B2" rx="11" ry="11" style="stroke:#A80036;stroke-width:1.0;"/><path d="M1592.0156,389.0156 Q1592.1719,388.7969 1592.3594,388.6875 Q1592.5469,388.5781 1592.7656,388.5781 Q1593.1406,388.5781 1593.375,388.8438 Q1593.6094,389.0938 1593.6094,389.7031 L1593.6094,391.1563 Q1593.6094,391.7656 1593.375,392.0313 Q1593.1406,392.2969 1592.7656,392.2969 Q1592.4219,392.2969 1592.2188,392.0938 Q1592.0156,391.9063 1591.9063,391.3906 Q1591.8594,391.0313 1591.6719,390.8438 Q1591.3438,390.4688 1590.7344,390.25 Q1590.125,390.0313 1589.5,390.0313 Q1588.7344,390.0313 1588.0938,390.3594 Q1587.4688,390.6875 1586.9688,391.4375 Q1586.4844,392.1875 1586.4844,393.2188 L1586.4844,394.3125 Q1586.4844,395.5469 1587.375,396.375 Q1588.2656,397.1875 1589.8594,397.1875 Q1590.7969,397.1875 1591.4531,396.9375 Q1591.8438,396.7813 1592.2656,396.3438 Q1592.5313,396.0781 1592.6719,396 Q1592.8281,395.9219 1593.0313,395.9219 Q1593.3594,395.9219 1593.6094,396.1875 Q1593.875,396.4375 1593.875,396.7813 Q1593.875,397.125 1593.5313,397.5313 Q1593.0313,398.1094 1592.2344,398.4375 Q1591.1563,398.8906 1589.8594,398.8906 Q1588.3438,398.8906 1587.1406,398.2656 Q1586.1563,397.7656 1585.4688,396.7031 Q1584.7813,395.625 1584.7813,394.3438 L1584.7813,393.1875 Q1584.7813,391.8594 1585.3906,390.7188 Q1586.0156,389.5625 1587.1094,388.9531 Q1588.2031,388.3281 1589.4375,388.3281 Q1590.1719,388.3281 1590.8125,388.5 Q1591.4688,388.6563 1592.0156,389.0156 Z " fill="#000000"/><ellipse cx="1614.75" cy="392.6406" fill="#84BE84" rx="3" ry="3" style="stroke:#038048;stroke-width:1.0;"/><text fill="#000000" font-family="sans-serif" font-size="12" lengthAdjust="spacing" textLength="27" x="1620.75" y="398.0508">RNN</text><line style="stroke:#A80036;stroke-width:1.5;" x1="1351" x2="1874" y1="409.1406" y2="409.1406"/><ellipse cx="1361" cy="420.1406" rx="3" ry="3" style="stroke:#038048;stroke-width:1.0;fill:none;"/><text fill="#000000" font-family="sans-serif" font-size="11" lengthAdjust="spacing" textLength="80" x="1370" y="424.5596">stateful: boolean</text><line style="stroke:#A80036;stroke-width:1.5;" x1="1351" x2="1874" y1="430.9766" y2="430.9766"/><ellipse cx="1361" cy="441.9766" fill="#84BE84" rx="3" ry="3" style="stroke:#038048;stroke-width:1.0;"/><text fill="#000000" font-family="sans-serif" font-size="11" lengthAdjust="spacing" textLength="122" x="1370" y="446.3955">build(input_shape:list[int])</text><ellipse cx="1361" cy="455.8125" fill="#84BE84" rx="3" ry="3" style="stroke:#038048;stroke-width:1.0;"/><text fill="#000000" font-family="sans-serif" font-size="11" lengthAdjust="spacing" textLength="499" x="1370" y="460.2314">call(inputs:list[Tensor], mask:list[Tensor], training:boolean, initial_state:Sequence, constants:list[Tensor])</text><!--MD5=[f181de05c7e54a943add324f1808f75d]
class Conv--><rect codeLine="40" fill="#FEFECE" filter="url(#faqn7l3idp83d)" height="131.0156" id="Conv" style="stroke:#A80036;stroke-width:1.5;" width="148" x="1910.5" y="356.6406"/><ellipse cx="1960.25" cy="372.6406" fill="#A9DCDF" rx="11" ry="11" style="stroke:#A80036;stroke-width:1.0;"/><path d="M1962.4375,374.4063 L1958.2969,374.4063 L1957.875,375.4375 L1958.2969,375.4375 Q1958.9063,375.4375 1959.1719,375.6719 Q1959.4375,375.9063 1959.4375,376.2969 Q1959.4375,376.6719 1959.1719,376.9063 Q1958.9063,377.1406 1958.2969,377.1406 L1956,377.1406 Q1955.3906,377.1406 1955.1406,376.9063 Q1954.875,376.6719 1954.875,376.2813 Q1954.875,375.9063 1955.1563,375.6719 Q1955.4219,375.4219 1956.0469,375.4375 L1958.7188,368.7813 L1957.6094,368.7813 Q1957,368.7813 1956.7344,368.5469 Q1956.4688,368.3125 1956.4688,367.9219 Q1956.4688,367.5469 1956.7344,367.3125 Q1957,367.0781 1957.6094,367.0781 L1961.2813,367.0781 L1964.6719,375.4375 Q1965.2656,375.4375 1965.4531,375.5781 Q1965.8438,375.8438 1965.8438,376.2969 Q1965.8438,376.6719 1965.5781,376.9063 Q1965.3281,377.1406 1964.7188,377.1406 L1962.4219,377.1406 Q1961.8125,377.1406 1961.5469,376.9063 Q1961.2813,376.6719 1961.2813,376.2813 Q1961.2813,375.9063 1961.5469,375.6719 Q1961.8125,375.4375 1962.4219,375.4375 L1962.8438,375.4375 L1962.4375,374.4063 Z M1961.7188,372.7031 L1960.3594,369.3281 L1958.9844,372.7031 L1961.7188,372.7031 Z " fill="#000000"/><ellipse cx="1985.75" cy="372.1406" fill="#84BE84" rx="3" ry="3" style="stroke:#038048;stroke-width:1.0;"/><text fill="#000000" font-family="sans-serif" font-size="12" font-style="italic" lengthAdjust="spacing" textLength="29" x="1991.75" y="377.5508">Conv</text><line style="stroke:#A80036;stroke-width:1.5;" x1="1911.5" x2="2057.5" y1="388.6406" y2="388.6406"/><ellipse cx="1921.5" cy="399.6406" rx="3" ry="3" style="stroke:#038048;stroke-width:1.0;fill:none;"/><text fill="#000000" font-family="sans-serif" font-size="11" lengthAdjust="spacing" textLength="44" x="1930.5" y="404.0596">filters: int</text><ellipse cx="1921.5" cy="413.4766" rx="3" ry="3" style="stroke:#038048;stroke-width:1.0;fill:none;"/><text fill="#000000" font-family="sans-serif" font-size="11" lengthAdjust="spacing" textLength="101" x="1930.5" y="417.8955">kernel_size: tuple[int]</text><ellipse cx="1921.5" cy="427.3125" rx="3" ry="3" style="stroke:#038048;stroke-width:1.0;fill:none;"/><text fill="#000000" font-family="sans-serif" font-size="11" lengthAdjust="spacing" textLength="88" x="1930.5" y="431.7314">use_bias: boolean</text><ellipse cx="1921.5" cy="441.1484" rx="3" ry="3" style="stroke:#038048;stroke-width:1.0;fill:none;"/><text fill="#000000" font-family="sans-serif" font-size="11" lengthAdjust="spacing" textLength="92" x="1930.5" y="445.5674">data_format: String</text><line style="stroke:#A80036;stroke-width:1.5;" x1="1911.5" x2="2057.5" y1="451.9844" y2="451.9844"/><ellipse cx="1921.5" cy="462.9844" fill="#84BE84" rx="3" ry="3" style="stroke:#038048;stroke-width:1.0;"/><text fill="#000000" font-family="sans-serif" font-size="11" lengthAdjust="spacing" textLength="122" x="1930.5" y="467.4033">build(input_shape:list[int])</text><ellipse cx="1921.5" cy="476.8203" fill="#84BE84" rx="3" ry="3" style="stroke:#038048;stroke-width:1.0;"/><text fill="#000000" font-family="sans-serif" font-size="11" lengthAdjust="spacing" textLength="109" x="1930.5" y="481.2393">call(inputs:list[Tensor])</text><!--MD5=[1f499521424484a325d6046dda63162b]
class Conv1D--><rect codeLine="48" fill="#FEFECE" filter="url(#faqn7l3idp83d)" height="48" id="Conv1D" style="stroke:#A80036;stroke-width:1.5;" width="87" x="1819" y="547.6406"/><ellipse cx="1834" cy="563.6406" fill="#ADD1B2" rx="11" ry="11" style="stroke:#A80036;stroke-width:1.0;"/><path d="M1836.7656,559.5156 Q1836.9219,559.2969 1837.1094,559.1875 Q1837.2969,559.0781 1837.5156,559.0781 Q1837.8906,559.0781 1838.125,559.3438 Q1838.3594,559.5938 1838.3594,560.2031 L1838.3594,561.6563 Q1838.3594,562.2656 1838.125,562.5313 Q1837.8906,562.7969 1837.5156,562.7969 Q1837.1719,562.7969 1836.9688,562.5938 Q1836.7656,562.4063 1836.6563,561.8906 Q1836.6094,561.5313 1836.4219,561.3438 Q1836.0938,560.9688 1835.4844,560.75 Q1834.875,560.5313 1834.25,560.5313 Q1833.4844,560.5313 1832.8438,560.8594 Q1832.2188,561.1875 1831.7188,561.9375 Q1831.2344,562.6875 1831.2344,563.7188 L1831.2344,564.8125 Q1831.2344,566.0469 1832.125,566.875 Q1833.0156,567.6875 1834.6094,567.6875 Q1835.5469,567.6875 1836.2031,567.4375 Q1836.5938,567.2813 1837.0156,566.8438 Q1837.2813,566.5781 1837.4219,566.5 Q1837.5781,566.4219 1837.7813,566.4219 Q1838.1094,566.4219 1838.3594,566.6875 Q1838.625,566.9375 1838.625,567.2813 Q1838.625,567.625 1838.2813,568.0313 Q1837.7813,568.6094 1836.9844,568.9375 Q1835.9063,569.3906 1834.6094,569.3906 Q1833.0938,569.3906 1831.8906,568.7656 Q1830.9063,568.2656 1830.2188,567.2031 Q1829.5313,566.125 1829.5313,564.8438 L1829.5313,563.6875 Q1829.5313,562.3594 1830.1406,561.2188 Q1830.7656,560.0625 1831.8594,559.4531 Q1832.9531,558.8281 1834.1875,558.8281 Q1834.9219,558.8281 1835.5625,559 Q1836.2188,559.1563 1836.7656,559.5156 Z " fill="#000000"/><ellipse cx="1853" cy="563.1406" fill="#84BE84" rx="3" ry="3" style="stroke:#038048;stroke-width:1.0;"/><text fill="#000000" font-family="sans-serif" font-size="12" lengthAdjust="spacing" textLength="44" x="1859" y="568.5508">Conv1D</text><line style="stroke:#A80036;stroke-width:1.5;" x1="1820" x2="1905" y1="579.6406" y2="579.6406"/><line style="stroke:#A80036;stroke-width:1.5;" x1="1820" x2="1905" y1="587.6406" y2="587.6406"/><!--MD5=[5cec783afe93cd202e8d8359dc94555e]
class Conv2D--><rect codeLine="51" fill="#FEFECE" filter="url(#faqn7l3idp83d)" height="48" id="Conv2D" style="stroke:#A80036;stroke-width:1.5;" width="87" x="1941" y="547.6406"/><ellipse cx="1956" cy="563.6406" fill="#ADD1B2" rx="11" ry="11" style="stroke:#A80036;stroke-width:1.0;"/><path d="M1958.7656,559.5156 Q1958.9219,559.2969 1959.1094,559.1875 Q1959.2969,559.0781 1959.5156,559.0781 Q1959.8906,559.0781 1960.125,559.3438 Q1960.3594,559.5938 1960.3594,560.2031 L1960.3594,561.6563 Q1960.3594,562.2656 1960.125,562.5313 Q1959.8906,562.7969 1959.5156,562.7969 Q1959.1719,562.7969 1958.9688,562.5938 Q1958.7656,562.4063 1958.6563,561.8906 Q1958.6094,561.5313 1958.4219,561.3438 Q1958.0938,560.9688 1957.4844,560.75 Q1956.875,560.5313 1956.25,560.5313 Q1955.4844,560.5313 1954.8438,560.8594 Q1954.2188,561.1875 1953.7188,561.9375 Q1953.2344,562.6875 1953.2344,563.7188 L1953.2344,564.8125 Q1953.2344,566.0469 1954.125,566.875 Q1955.0156,567.6875 1956.6094,567.6875 Q1957.5469,567.6875 1958.2031,567.4375 Q1958.5938,567.2813 1959.0156,566.8438 Q1959.2813,566.5781 1959.4219,566.5 Q1959.5781,566.4219 1959.7813,566.4219 Q1960.1094,566.4219 1960.3594,566.6875 Q1960.625,566.9375 1960.625,567.2813 Q1960.625,567.625 1960.2813,568.0313 Q1959.7813,568.6094 1958.9844,568.9375 Q1957.9063,569.3906 1956.6094,569.3906 Q1955.0938,569.3906 1953.8906,568.7656 Q1952.9063,568.2656 1952.2188,567.2031 Q1951.5313,566.125 1951.5313,564.8438 L1951.5313,563.6875 Q1951.5313,562.3594 1952.1406,561.2188 Q1952.7656,560.0625 1953.8594,559.4531 Q1954.9531,558.8281 1956.1875,558.8281 Q1956.9219,558.8281 1957.5625,559 Q1958.2188,559.1563 1958.7656,559.5156 Z " fill="#000000"/><ellipse cx="1975" cy="563.1406" fill="#84BE84" rx="3" ry="3" style="stroke:#038048;stroke-width:1.0;"/><text fill="#000000" font-family="sans-serif" font-size="12" lengthAdjust="spacing" textLength="44" x="1981" y="568.5508">Conv2D</text><line style="stroke:#A80036;stroke-width:1.5;" x1="1942" x2="2027" y1="579.6406" y2="579.6406"/><line style="stroke:#A80036;stroke-width:1.5;" x1="1942" x2="2027" y1="587.6406" y2="587.6406"/><!--MD5=[82f1ce22ff658afce9808cb3c69e05a0]
class Conv3D--><rect codeLine="54" fill="#FEFECE" filter="url(#faqn7l3idp83d)" height="48" id="Conv3D" style="stroke:#A80036;stroke-width:1.5;" width="87" x="2063" y="547.6406"/><ellipse cx="2078" cy="563.6406" fill="#ADD1B2" rx="11" ry="11" style="stroke:#A80036;stroke-width:1.0;"/><path d="M2080.7656,559.5156 Q2080.9219,559.2969 2081.1094,559.1875 Q2081.2969,559.0781 2081.5156,559.0781 Q2081.8906,559.0781 2082.125,559.3438 Q2082.3594,559.5938 2082.3594,560.2031 L2082.3594,561.6563 Q2082.3594,562.2656 2082.125,562.5313 Q2081.8906,562.7969 2081.5156,562.7969 Q2081.1719,562.7969 2080.9688,562.5938 Q2080.7656,562.4063 2080.6563,561.8906 Q2080.6094,561.5313 2080.4219,561.3438 Q2080.0938,560.9688 2079.4844,560.75 Q2078.875,560.5313 2078.25,560.5313 Q2077.4844,560.5313 2076.8438,560.8594 Q2076.2188,561.1875 2075.7188,561.9375 Q2075.2344,562.6875 2075.2344,563.7188 L2075.2344,564.8125 Q2075.2344,566.0469 2076.125,566.875 Q2077.0156,567.6875 2078.6094,567.6875 Q2079.5469,567.6875 2080.2031,567.4375 Q2080.5938,567.2813 2081.0156,566.8438 Q2081.2813,566.5781 2081.4219,566.5 Q2081.5781,566.4219 2081.7813,566.4219 Q2082.1094,566.4219 2082.3594,566.6875 Q2082.625,566.9375 2082.625,567.2813 Q2082.625,567.625 2082.2813,568.0313 Q2081.7813,568.6094 2080.9844,568.9375 Q2079.9063,569.3906 2078.6094,569.3906 Q2077.0938,569.3906 2075.8906,568.7656 Q2074.9063,568.2656 2074.2188,567.2031 Q2073.5313,566.125 2073.5313,564.8438 L2073.5313,563.6875 Q2073.5313,562.3594 2074.1406,561.2188 Q2074.7656,560.0625 2075.8594,559.4531 Q2076.9531,558.8281 2078.1875,558.8281 Q2078.9219,558.8281 2079.5625,559 Q2080.2188,559.1563 2080.7656,559.5156 Z " fill="#000000"/><ellipse cx="2097" cy="563.1406" fill="#84BE84" rx="3" ry="3" style="stroke:#038048;stroke-width:1.0;"/><text fill="#000000" font-family="sans-serif" font-size="12" lengthAdjust="spacing" textLength="44" x="2103" y="568.5508">Conv3D</text><line style="stroke:#A80036;stroke-width:1.5;" x1="2064" x2="2149" y1="579.6406" y2="579.6406"/><line style="stroke:#A80036;stroke-width:1.5;" x1="2064" x2="2149" y1="587.6406" y2="587.6406"/><!--MD5=[90749fbda2e272462e9ca4ce2a994d16]
class Bidirectional--><rect codeLine="57" fill="#FEFECE" filter="url(#faqn7l3idp83d)" height="131.0156" id="Bidirectional" style="stroke:#A80036;stroke-width:1.5;" width="596" x="509.5" y="356.6406"/><ellipse cx="763.75" cy="372.6406" fill="#ADD1B2" rx="11" ry="11" style="stroke:#A80036;stroke-width:1.0;"/><path d="M766.5156,368.5156 Q766.6719,368.2969 766.8594,368.1875 Q767.0469,368.0781 767.2656,368.0781 Q767.6406,368.0781 767.875,368.3438 Q768.1094,368.5938 768.1094,369.2031 L768.1094,370.6563 Q768.1094,371.2656 767.875,371.5313 Q767.6406,371.7969 767.2656,371.7969 Q766.9219,371.7969 766.7188,371.5938 Q766.5156,371.4063 766.4063,370.8906 Q766.3594,370.5313 766.1719,370.3438 Q765.8438,369.9688 765.2344,369.75 Q764.625,369.5313 764,369.5313 Q763.2344,369.5313 762.5938,369.8594 Q761.9688,370.1875 761.4688,370.9375 Q760.9844,371.6875 760.9844,372.7188 L760.9844,373.8125 Q760.9844,375.0469 761.875,375.875 Q762.7656,376.6875 764.3594,376.6875 Q765.2969,376.6875 765.9531,376.4375 Q766.3438,376.2813 766.7656,375.8438 Q767.0313,375.5781 767.1719,375.5 Q767.3281,375.4219 767.5313,375.4219 Q767.8594,375.4219 768.1094,375.6875 Q768.375,375.9375 768.375,376.2813 Q768.375,376.625 768.0313,377.0313 Q767.5313,377.6094 766.7344,377.9375 Q765.6563,378.3906 764.3594,378.3906 Q762.8438,378.3906 761.6406,377.7656 Q760.6563,377.2656 759.9688,376.2031 Q759.2813,375.125 759.2813,373.8438 L759.2813,372.6875 Q759.2813,371.3594 759.8906,370.2188 Q760.5156,369.0625 761.6094,368.4531 Q762.7031,367.8281 763.9375,367.8281 Q764.6719,367.8281 765.3125,368 Q765.9688,368.1563 766.5156,368.5156 Z " fill="#000000"/><ellipse cx="789.25" cy="372.1406" fill="#84BE84" rx="3" ry="3" style="stroke:#038048;stroke-width:1.0;"/><text fill="#000000" font-family="sans-serif" font-size="12" lengthAdjust="spacing" textLength="68" x="795.25" y="377.5508">Bidirectional</text><line style="stroke:#A80036;stroke-width:1.5;" x1="510.5" x2="1104.5" y1="388.6406" y2="388.6406"/><ellipse cx="520.5" cy="399.6406" rx="3" ry="3" style="stroke:#038048;stroke-width:1.0;fill:none;"/><text fill="#000000" font-family="sans-serif" font-size="11" lengthAdjust="spacing" textLength="113" x="529.5" y="404.0596">backward_layer: Layer</text><ellipse cx="520.5" cy="413.4766" rx="3" ry="3" style="stroke:#038048;stroke-width:1.0;fill:none;"/><text fill="#000000" font-family="sans-serif" font-size="11" lengthAdjust="spacing" textLength="104" x="529.5" y="417.8955">forward_layer: Layer</text><ellipse cx="520.5" cy="427.3125" rx="3" ry="3" style="stroke:#038048;stroke-width:1.0;fill:none;"/><text fill="#000000" font-family="sans-serif" font-size="11" lengthAdjust="spacing" textLength="117" x="529.5" y="431.7314">go_backwards: boolean</text><ellipse cx="520.5" cy="441.1484" rx="3" ry="3" style="stroke:#038048;stroke-width:1.0;fill:none;"/><text fill="#000000" font-family="sans-serif" font-size="11" lengthAdjust="spacing" textLength="96" x="529.5" y="445.5674">merge_mode: String</text><line style="stroke:#A80036;stroke-width:1.5;" x1="510.5" x2="1104.5" y1="451.9844" y2="451.9844"/><polygon fill="#FFFF44" points="520.5,457.9844,524.5,461.9844,520.5,465.9844,516.5,461.9844" style="stroke:#B38D22;stroke-width:1.0;"/><text fill="#000000" font-family="sans-serif" font-size="11" lengthAdjust="spacing" textLength="346" x="529.5" y="467.4033">recreate_layer_from_config(layer:Layer,go_backwards:boolean):Layer</text><ellipse cx="520.5" cy="476.8203" fill="#84BE84" rx="3" ry="3" style="stroke:#038048;stroke-width:1.0;"/><text fill="#000000" font-family="sans-serif" font-size="11" lengthAdjust="spacing" textLength="570" x="529.5" y="481.2393">call(inputs:list[Tensor],training:boolean,mask:list[Tensor],initial_state:Sequence, constants:list[Tensor]): Tensor|tuple|list</text><!--MD5=[f850d067325120052f4ff58f2665d238]
class cilent--><rect codeLine="65" fill="#FEFECE" filter="url(#faqn7l3idp83d)" height="48" id="cilent" style="stroke:#A80036;stroke-width:1.5;" width="72" x="1191.5" y="29.6406"/><ellipse cx="1206.5" cy="45.6406" fill="#ADD1B2" rx="11" ry="11" style="stroke:#A80036;stroke-width:1.0;"/><path d="M1209.2656,41.5156 Q1209.4219,41.2969 1209.6094,41.1875 Q1209.7969,41.0781 1210.0156,41.0781 Q1210.3906,41.0781 1210.625,41.3438 Q1210.8594,41.5938 1210.8594,42.2031 L1210.8594,43.6563 Q1210.8594,44.2656 1210.625,44.5313 Q1210.3906,44.7969 1210.0156,44.7969 Q1209.6719,44.7969 1209.4688,44.5938 Q1209.2656,44.4063 1209.1563,43.8906 Q1209.1094,43.5313 1208.9219,43.3438 Q1208.5938,42.9688 1207.9844,42.75 Q1207.375,42.5313 1206.75,42.5313 Q1205.9844,42.5313 1205.3438,42.8594 Q1204.7188,43.1875 1204.2188,43.9375 Q1203.7344,44.6875 1203.7344,45.7188 L1203.7344,46.8125 Q1203.7344,48.0469 1204.625,48.875 Q1205.5156,49.6875 1207.1094,49.6875 Q1208.0469,49.6875 1208.7031,49.4375 Q1209.0938,49.2813 1209.5156,48.8438 Q1209.7813,48.5781 1209.9219,48.5 Q1210.0781,48.4219 1210.2813,48.4219 Q1210.6094,48.4219 1210.8594,48.6875 Q1211.125,48.9375 1211.125,49.2813 Q1211.125,49.625 1210.7813,50.0313 Q1210.2813,50.6094 1209.4844,50.9375 Q1208.4063,51.3906 1207.1094,51.3906 Q1205.5938,51.3906 1204.3906,50.7656 Q1203.4063,50.2656 1202.7188,49.2031 Q1202.0313,48.125 1202.0313,46.8438 L1202.0313,45.6875 Q1202.0313,44.3594 1202.6406,43.2188 Q1203.2656,42.0625 1204.3594,41.4531 Q1205.4531,40.8281 1206.6875,40.8281 Q1207.4219,40.8281 1208.0625,41 Q1208.7188,41.1563 1209.2656,41.5156 Z " fill="#000000"/><ellipse cx="1225.5" cy="45.1406" fill="#84BE84" rx="3" ry="3" style="stroke:#038048;stroke-width:1.0;"/><text fill="#000000" font-family="sans-serif" font-size="12" lengthAdjust="spacing" textLength="29" x="1231.5" y="50.5508">cilent</text><line style="stroke:#A80036;stroke-width:1.5;" x1="1192.5" x2="1262.5" y1="61.6406" y2="61.6406"/><line style="stroke:#A80036;stroke-width:1.5;" x1="1192.5" x2="1262.5" y1="69.6406" y2="69.6406"/><!--MD5=[01a9b4d46fcecd50ae1473f1e55bc756]
reverse link Layer to Wrapper--><path d="M1068.9,240.3906 C1030.49,240.4506 992.08,236.4706 953.67,228.4406 " fill="none" id="Layer-backto-Wrapper" style="stroke:#A80036;stroke-width:1.0;"/><polygon fill="none" points="1068.85,233.3906,1088.98,239.9906,1069.12,247.3906,1068.85,233.3906" style="stroke:#A80036;stroke-width:1.0;"/><!--MD5=[12ff829b4d6ff07fd90aa421246313a7]
link Wrapper to Layer--><path codeLine="69" d="M953.67,205.8406 C997.1,196.7606 1040.53,192.8606 1083.96,194.1206 " fill="none" id="Wrapper-to-Layer" style="stroke:#A80036;stroke-width:1.0;"/><polygon fill="#A80036" points="1088.98,194.2906,1080.1223,189.9846,1083.9829,194.1193,1079.8482,197.9799,1088.98,194.2906" style="stroke:#A80036;stroke-width:1.0;"/><!--MD5=[ff89f81932b372f7bd703c7aa571464b]
reverse link Wrapper to TimeDistributed--><path d="M844.17,237.7206 C733.41,271.4306 504.94,340.9606 363.31,384.0706 " fill="none" id="Wrapper-backto-TimeDistributed" style="stroke:#A80036;stroke-width:1.0;"/><polygon fill="none" points="842.27,230.9806,863.44,231.8506,846.34,244.3706,842.27,230.9806" style="stroke:#A80036;stroke-width:1.0;"/><!--MD5=[41af6aaef126adbad02f80ac12126185]
reverse link Layer to Dense--><path d="M1227.5,316.9506 C1227.5,332.9006 1227.5,348.9406 1227.5,363.4906 " fill="none" id="Layer-backto-Dense" style="stroke:#A80036;stroke-width:1.0;"/><polygon fill="none" points="1220.5,316.9206,1227.5,296.9206,1234.5,316.9206,1220.5,316.9206" style="stroke:#A80036;stroke-width:1.0;"/><!--MD5=[d7392039f37343151db53c4ccbc87dec]
reverse link Layer to RNN--><path d="M1383.98,300.6506 C1433.64,326.8306 1486.62,354.7706 1529.05,377.1406 " fill="none" id="Layer-backto-RNN" style="stroke:#A80036;stroke-width:1.0;"/><polygon fill="none" points="1380.65,306.8006,1366.22,291.2806,1387.18,294.4206,1380.65,306.8006" style="stroke:#A80036;stroke-width:1.0;"/><!--MD5=[3c4e9e8e8281329d105afb72477d3583]
reverse link Layer to Conv--><path d="M1386.06,232.8906 C1524.33,249.9606 1727.96,285.4406 1892.5,356.6406 C1898.5,359.2406 1904.5,362.2606 1910.41,365.5506 " fill="none" id="Layer-backto-Conv" style="stroke:#A80036;stroke-width:1.0;"/><polygon fill="none" points="1385.18,239.8306,1366.15,230.5006,1386.84,225.9306,1385.18,239.8306" style="stroke:#A80036;stroke-width:1.0;"/><!--MD5=[34fa0212c2b71041bfefca872f39cf6f]
reverse link Conv to Conv1D--><path d="M1918.18,503.3206 C1904.84,519.4506 1891.84,535.1606 1881.77,547.3506 " fill="none" id="Conv-backto-Conv1D" style="stroke:#A80036;stroke-width:1.0;"/><polygon fill="none" points="1912.85,498.7906,1930.99,487.8406,1923.64,507.7106,1912.85,498.7906" style="stroke:#A80036;stroke-width:1.0;"/><!--MD5=[ea024bdae5e3ee3b9b952a999f73bdb3]
reverse link Conv to Conv2D--><path d="M1984.5,508.2906 C1984.5,522.6506 1984.5,536.4206 1984.5,547.3506 " fill="none" id="Conv-backto-Conv2D" style="stroke:#A80036;stroke-width:1.0;"/><polygon fill="none" points="1977.5,507.8406,1984.5,487.8406,1991.5,507.8406,1977.5,507.8406" style="stroke:#A80036;stroke-width:1.0;"/><!--MD5=[ec5b64ba7152df9fc7d67ac4faf544e8]
reverse link Conv to Conv3D--><path d="M2050.82,503.3206 C2064.16,519.4506 2077.16,535.1606 2087.23,547.3506 " fill="none" id="Conv-backto-Conv3D" style="stroke:#A80036;stroke-width:1.0;"/><polygon fill="none" points="2045.36,507.7106,2038.01,487.8406,2056.15,498.7906,2045.36,507.7106" style="stroke:#A80036;stroke-width:1.0;"/><!--MD5=[14f8707d985aab8a65233934595359b3]
reverse link Wrapper to Bidirectional--><path d="M884.32,266.7306 C870.94,293.6306 854.14,327.4006 839.66,356.4906 " fill="none" id="Wrapper-backto-Bidirectional" style="stroke:#A80036;stroke-width:1.0;"/><polygon fill="none" points="878.2,263.3206,893.38,248.5306,890.74,269.5606,878.2,263.3206" style="stroke:#A80036;stroke-width:1.0;"/><!--MD5=[416c21db7fb15b993c49b966879fccfb]
link cilent to Layer--><path codeLine="68" d="M1227.5,77.7806 C1227.5,92.4106 1227.5,112.3106 1227.5,132.4606 " fill="none" id="cilent-to-Layer" style="stroke:#A80036;stroke-width:1.0;"/><polygon fill="#A80036" points="1227.5,137.5806,1231.5,128.5806,1227.5,132.5806,1223.5,128.5806,1227.5,137.5806" style="stroke:#A80036;stroke-width:1.0;"/><!--MD5=[411add7c3593a879feeeca34ee155ca7]
@startuml

title Keras - Decorator
    

+abstract class Wrapper extends Layer{
    # layer: Layer
    
}

+class Layer{
    # trainable: boolean
    # name: String
    # dynamic: boolean
    # losses: list[Tensor]
    +build(input_shape:TensorShape):void
    + call(inputs:list[Tensor], *args, **kwargs): Tensor
    + compute_output_shape(input_shape:tuple): tuple
    + compute_mask(inputs:Tensor,mask:Tensor): Tensor
}

+class TimeDistributed extends Wrapper{

    # get_shape_tuple(init_tuple:tuple[],tensor:Tensor,start_idx:int,int_shape:TensorShape): tuple
    # remove_timesteps(dims:tuple[int]): tuple
}
+class Dense extends Layer {
    +build(input_shape:list[int]): void
    +call(inputs:list[Tensor])
    +units: int
    +use_bias: boolean
    +supports_masking: boolean
}

+class RNN extends Layer {
    +build(input_shape:list[int])
    +call(inputs:list[Tensor], mask:list[Tensor], training:boolean, initial_state:Sequence, constants:list[Tensor])
    +stateful: boolean
}

+abstract class Conv extends Layer {
    +build(input_shape:list[int])
    +call(inputs:list[Tensor])
    +filters: int
    +kernel_size: tuple[int]
    +use_bias: boolean
    +data_format: String
}
+class Conv1D extends Conv{
    
}
+class Conv2D extends Conv{

}
+class Conv3D extends Conv{
    
}
+class Bidirectional extends Wrapper{
    + backward_layer: Layer
    + forward_layer: Layer
    + go_backwards: boolean
    + merge_mode: String
    # recreate_layer_from_config(layer:Layer,go_backwards:boolean):Layer
    + call(inputs:list[Tensor],training:boolean,mask:list[Tensor],initial_state:Sequence, constants:list[Tensor]): Tensor|tuple|list
}
+class cilent{

}
cilent -down-> Layer
Layer <-left- Wrapper
@enduml

PlantUML version 1.2021.14(Fri Nov 12 23:46:50 ICT 2021)
(GPL source distribution)
Java Runtime: Java(TM) SE Runtime Environment
JVM: Java HotSpot(TM) 64-Bit Server VM
Default Encoding: Cp1252
Language: en
Country: US
--></g></svg>